<svg version="1.1" xmlns="http://www.w3.org/2000/svg" viewBox="0 0 590 345" width="590" height="345">
  <!-- svg-source:excalidraw -->
  
  <defs>
    <style class="style-fonts">
      @font-face {
        font-family: "Virgil";
        src: url("https://unpkg.com/@excalidraw/excalidraw@undefined/dist/excalidraw-assets/Virgil.woff2");
      }
      @font-face {
        font-family: "Cascadia";
        src: url("https://unpkg.com/@excalidraw/excalidraw@undefined/dist/excalidraw-assets/Cascadia.woff2");
      }
      @font-face {
        font-family: "Assistant";
        src: url("https://unpkg.com/@excalidraw/excalidraw@undefined/dist/excalidraw-assets/Assistant-Regular.woff2");
      }
    </style>
    
  </defs>
  <rect x="0" y="0" width="590" height="345" fill="#ffffff"></rect><g transform="translate(130 10) rotate(0 210 15)"><text x="210" y="0" font-family="Segoe UI Emoji" font-size="24px" fill="#1e1e1e" text-anchor="middle" style="white-space: pre;" direction="ltr" dominant-baseline="text-before-edge">Flight Operations + Engine Performance</text></g><g stroke-linecap="round" transform="translate(10 60) rotate(0 60 22.5)"><path d="M11.25 0 C32.55 0, 53.84 0, 108.75 0 C116.25 0, 120 3.75, 120 11.25 C120 17.12, 120 22.99, 120 33.75 C120 41.25, 116.25 45, 108.75 45 C81.68 45, 54.61 45, 11.25 45 C3.75 45, 0 41.25, 0 33.75 C0 25.49, 0 17.22, 0 11.25 C0 3.75, 3.75 0, 11.25 0" stroke="none" stroke-width="0" fill="#f3d9fa"></path><path d="M11.25 0 C30.79 0, 50.34 0, 108.75 0 M11.25 0 C37.71 0, 64.17 0, 108.75 0 M108.75 0 C116.25 0, 120 3.75, 120 11.25 M108.75 0 C116.25 0, 120 3.75, 120 11.25 M120 11.25 C120 19.52, 120 27.8, 120 33.75 M120 11.25 C120 18.94, 120 26.63, 120 33.75 M120 33.75 C120 41.25, 116.25 45, 108.75 45 M120 33.75 C120 41.25, 116.25 45, 108.75 45 M108.75 45 C71.42 45, 34.08 45, 11.25 45 M108.75 45 C69.96 45, 31.17 45, 11.25 45 M11.25 45 C3.75 45, 0 41.25, 0 33.75 M11.25 45 C3.75 45, 0 41.25, 0 33.75 M0 33.75 C0 25.48, 0 17.2, 0 11.25 M0 33.75 C0 26.59, 0 19.44, 0 11.25 M0 11.25 C0 3.75, 3.75 0, 11.25 0 M0 11.25 C0 3.75, 3.75 0, 11.25 0" stroke="#9c36b5" stroke-width="2" fill="none"></path></g><g transform="translate(20 68) rotate(0 50 12.5)"><text x="50" y="0" font-family="Segoe UI Emoji" font-size="16px" fill="#9c36b5" text-anchor="middle" style="white-space: pre;" direction="ltr" dominant-baseline="text-before-edge">🔷 Neo4j</text></g><g stroke-linecap="round" transform="translate(190 60) rotate(0 75 22.5)"><path d="M11.25 0 C44.2 0, 77.14 0, 138.75 0 C146.25 0, 150 3.75, 150 11.25 C150 18.26, 150 25.27, 150 33.75 C150 41.25, 146.25 45, 138.75 45 C94.32 45, 49.89 45, 11.25 45 C3.75 45, 0 41.25, 0 33.75 C0 28.04, 0 22.33, 0 11.25 C0 3.75, 3.75 0, 11.25 0" stroke="none" stroke-width="0" fill="#f3d9fa"></path><path d="M11.25 0 C36.81 0, 62.37 0, 138.75 0 M11.25 0 C38.71 0, 66.17 0, 138.75 0 M138.75 0 C146.25 0, 150 3.75, 150 11.25 M138.75 0 C146.25 0, 150 3.75, 150 11.25 M150 11.25 C150 15.81, 150 20.37, 150 33.75 M150 11.25 C150 18.47, 150 25.68, 150 33.75 M150 33.75 C150 41.25, 146.25 45, 138.75 45 M150 33.75 C150 41.25, 146.25 45, 138.75 45 M138.75 45 C111.43 45, 84.11 45, 11.25 45 M138.75 45 C109.49 45, 80.23 45, 11.25 45 M11.25 45 C3.75 45, 0 41.25, 0 33.75 M11.25 45 C3.75 45, 0 41.25, 0 33.75 M0 33.75 C0 26.07, 0 18.39, 0 11.25 M0 33.75 C0 27.65, 0 21.56, 0 11.25 M0 11.25 C0 3.75, 3.75 0, 11.25 0 M0 11.25 C0 3.75, 3.75 0, 11.25 0" stroke="#9c36b5" stroke-width="2" fill="none"></path></g><g transform="translate(200 68) rotate(0 65 12.5)"><text x="65" y="0" font-family="Segoe UI Emoji" font-size="14px" fill="#9c36b5" text-anchor="middle" style="white-space: pre;" direction="ltr" dominant-baseline="text-before-edge">Spark Connector</text></g><g stroke-linecap="round"><g transform="translate(132 82) rotate(0 28 0)"><path d="M0 0 C9.33 0, 46.67 0, 56 0 M0 0 C9.33 0, 46.67 0, 56 0" stroke="#9c36b5" stroke-width="2" fill="none"></path></g><g transform="translate(132 82) rotate(0 28 0)"><path d="M29.69 9.58 C34.96 7.66, 40.24 5.74, 56 0 M29.69 9.58 C39.14 6.14, 48.6 2.69, 56 0" stroke="#9c36b5" stroke-width="2" fill="none"></path></g><g transform="translate(132 82) rotate(0 28 0)"><path d="M29.69 -9.58 C34.96 -7.66, 40.24 -5.74, 56 0 M29.69 -9.58 C39.14 -6.14, 48.6 -2.69, 56 0" stroke="#9c36b5" stroke-width="2" fill="none"></path></g></g><mask></mask><g stroke-linecap="round" transform="translate(400 60) rotate(0 90 22.5)"><path d="M11.25 0 C61.39 0, 111.53 0, 168.75 0 C176.25 0, 180 3.75, 180 11.25 C180 17.72, 180 24.2, 180 33.75 C180 41.25, 176.25 45, 168.75 45 C112.88 45, 57.01 45, 11.25 45 C3.75 45, 0 41.25, 0 33.75 C0 25.12, 0 16.49, 0 11.25 C0 3.75, 3.75 0, 11.25 0" stroke="none" stroke-width="0" fill="#c5f6fa"></path><path d="M11.25 0 C42.83 0, 74.4 0, 168.75 0 M11.25 0 C47.69 0, 84.12 0, 168.75 0 M168.75 0 C176.25 0, 180 3.75, 180 11.25 M168.75 0 C176.25 0, 180 3.75, 180 11.25 M180 11.25 C180 16.99, 180 22.74, 180 33.75 M180 11.25 C180 17.76, 180 24.27, 180 33.75 M180 33.75 C180 41.25, 176.25 45, 168.75 45 M180 33.75 C180 41.25, 176.25 45, 168.75 45 M168.75 45 C127.6 45, 86.45 45, 11.25 45 M168.75 45 C125.13 45, 81.51 45, 11.25 45 M11.25 45 C3.75 45, 0 41.25, 0 33.75 M11.25 45 C3.75 45, 0 41.25, 0 33.75 M0 33.75 C0 29.21, 0 24.67, 0 11.25 M0 33.75 C0 27, 0 20.24, 0 11.25 M0 11.25 C0 3.75, 3.75 0, 11.25 0 M0 11.25 C0 3.75, 3.75 0, 11.25 0" stroke="#1098ad" stroke-width="2" fill="none"></path></g><g transform="translate(410 68) rotate(0 80 12.5)"><text x="80" y="0" font-family="Segoe UI Emoji" font-size="14px" fill="#1098ad" text-anchor="middle" style="white-space: pre;" direction="ltr" dominant-baseline="text-before-edge">💭 neo4j_flights</text></g><g stroke-linecap="round"><g transform="translate(342 82) rotate(0 28 0)"><path d="M0 0 C9.33 0, 46.67 0, 56 0 M0 0 C9.33 0, 46.67 0, 56 0" stroke="#9c36b5" stroke-width="2" fill="none"></path></g><g transform="translate(342 82) rotate(0 28 0)"><path d="M29.69 9.58 C34.96 7.66, 40.24 5.74, 56 0 M29.69 9.58 C39.56 5.98, 49.44 2.39, 56 0" stroke="#9c36b5" stroke-width="2" fill="none"></path></g><g transform="translate(342 82) rotate(0 28 0)"><path d="M29.69 -9.58 C34.96 -7.66, 40.24 -5.74, 56 0 M29.69 -9.58 C39.56 -5.98, 49.44 -2.39, 56 0" stroke="#9c36b5" stroke-width="2" fill="none"></path></g></g><mask></mask><g stroke-linecap="round" transform="translate(10 140) rotate(0 80 19)"><path d="M9.5 0 C62.84 0, 116.18 0, 150.5 0 C156.83 0, 160 3.17, 160 9.5 C160 14.51, 160 19.52, 160 28.5 C160 34.83, 156.83 38, 150.5 38 C99.6 38, 48.7 38, 9.5 38 C3.17 38, 0 34.83, 0 28.5 C0 22.55, 0 16.6, 0 9.5 C0 3.17, 3.17 0, 9.5 0" stroke="none" stroke-width="0" fill="#dbe4ff"></path><path d="M9.5 0 C37.77 0, 66.04 0, 150.5 0 M9.5 0 C44.37 0, 79.25 0, 150.5 0 M150.5 0 C156.83 0, 160 3.17, 160 9.5 M150.5 0 C156.83 0, 160 3.17, 160 9.5 M160 9.5 C160 15.35, 160 21.19, 160 28.5 M160 9.5 C160 14.4, 160 19.3, 160 28.5 M160 28.5 C160 34.83, 156.83 38, 150.5 38 M160 28.5 C160 34.83, 156.83 38, 150.5 38 M150.5 38 C107.03 38, 63.56 38, 9.5 38 M150.5 38 C104.76 38, 59.01 38, 9.5 38 M9.5 38 C3.17 38, 0 34.83, 0 28.5 M9.5 38 C3.17 38, 0 34.83, 0 28.5 M0 28.5 C0 23.52, 0 18.54, 0 9.5 M0 28.5 C0 22.24, 0 15.98, 0 9.5 M0 9.5 C0 3.17, 3.17 0, 9.5 0 M0 9.5 C0 3.17, 3.17 0, 9.5 0" stroke="#1971c2" stroke-width="2" fill="none"></path></g><g transform="translate(20 146) rotate(0 70 12.5)"><text x="70" y="0" font-family="Segoe UI Emoji" font-size="13px" fill="#1971c2" text-anchor="middle" style="white-space: pre;" direction="ltr" dominant-baseline="text-before-edge">💾 sensor_readings</text></g><g stroke-linecap="round" transform="translate(10 184) rotate(0 80 19)"><path d="M9.5 0 C40.28 0, 71.05 0, 150.5 0 C156.83 0, 160 3.17, 160 9.5 C160 15.48, 160 21.45, 160 28.5 C160 34.83, 156.83 38, 150.5 38 C117.81 38, 85.12 38, 9.5 38 C3.17 38, 0 34.83, 0 28.5 C0 20.91, 0 13.31, 0 9.5 C0 3.17, 3.17 0, 9.5 0" stroke="none" stroke-width="0" fill="#dbe4ff"></path><path d="M9.5 0 C37.77 0, 66.04 0, 150.5 0 M9.5 0 C64.68 0, 119.85 0, 150.5 0 M150.5 0 C156.83 0, 160 3.17, 160 9.5 M150.5 0 C156.83 0, 160 3.17, 160 9.5 M160 9.5 C160 16.01, 160 22.52, 160 28.5 M160 9.5 C160 14, 160 18.5, 160 28.5 M160 28.5 C160 34.83, 156.83 38, 150.5 38 M160 28.5 C160 34.83, 156.83 38, 150.5 38 M150.5 38 C102.61 38, 54.72 38, 9.5 38 M150.5 38 C100.3 38, 50.09 38, 9.5 38 M9.5 38 C3.17 38, 0 34.83, 0 28.5 M9.5 38 C3.17 38, 0 34.83, 0 28.5 M0 28.5 C0 24.02, 0 19.54, 0 9.5 M0 28.5 C0 23.14, 0 17.77, 0 9.5 M0 9.5 C0 3.17, 3.17 0, 9.5 0 M0 9.5 C0 3.17, 3.17 0, 9.5 0" stroke="#1971c2" stroke-width="2" fill="none"></path></g><g transform="translate(20 190) rotate(0 70 12.5)"><text x="70" y="0" font-family="Segoe UI Emoji" font-size="13px" fill="#1971c2" text-anchor="middle" style="white-space: pre;" direction="ltr" dominant-baseline="text-before-edge">💾 sensors</text></g><g stroke-linecap="round" transform="translate(10 228) rotate(0 80 19)"><path d="M9.5 0 C45.91 0, 82.33 0, 150.5 0 C156.83 0, 160 3.17, 160 9.5 C160 16.44, 160 23.38, 160 28.5 C160 34.83, 156.83 38, 150.5 38 C107.82 38, 65.14 38, 9.5 38 C3.17 38, 0 34.83, 0 28.5 C0 23.06, 0 17.63, 0 9.5 C0 3.17, 3.17 0, 9.5 0" stroke="none" stroke-width="0" fill="#dbe4ff"></path><path d="M9.5 0 C37.77 0, 66.04 0, 150.5 0 M9.5 0 C56.78 0, 104.05 0, 150.5 0 M150.5 0 C156.83 0, 160 3.17, 160 9.5 M150.5 0 C156.83 0, 160 3.17, 160 9.5 M160 9.5 C160 16.68, 160 23.85, 160 28.5 M160 9.5 C160 13.6, 160 17.71, 160 28.5 M160 28.5 C160 34.83, 156.83 38, 150.5 38 M160 28.5 C160 34.83, 156.83 38, 150.5 38 M150.5 38 C98.19 38, 45.88 38, 9.5 38 M150.5 38 C95.83 38, 41.17 38, 9.5 38 M9.5 38 C3.17 38, 0 34.83, 0 28.5 M9.5 38 C3.17 38, 0 34.83, 0 28.5 M0 28.5 C0 24.52, 0 20.54, 0 9.5 M0 28.5 C0 24.03, 0 19.57, 0 9.5 M0 9.5 C0 3.17, 3.17 0, 9.5 0 M0 9.5 C0 3.17, 3.17 0, 9.5 0" stroke="#1971c2" stroke-width="2" fill="none"></path></g><g transform="translate(20 234) rotate(0 70 12.5)"><text x="70" y="0" font-family="Segoe UI Emoji" font-size="13px" fill="#1971c2" text-anchor="middle" style="white-space: pre;" direction="ltr" dominant-baseline="text-before-edge">💾 systems</text></g><g stroke-linecap="round" transform="translate(10 272) rotate(0 80 19)"><path d="M9.5 0 C51.55 0, 93.6 0, 150.5 0 C156.83 0, 160 3.17, 160 9.5 C160 13.6, 160 17.71, 160 28.5 C160 34.83, 156.83 38, 150.5 38 C97.83 38, 45.17 38, 9.5 38 C3.17 38, 0 34.83, 0 28.5 C0 21.42, 0 14.34, 0 9.5 C0 3.17, 3.17 0, 9.5 0" stroke="none" stroke-width="0" fill="#dbe4ff"></path><path d="M9.5 0 C37.77 0, 66.05 0, 150.5 0 M9.5 0 C48.88 0, 88.26 0, 150.5 0 M150.5 0 C156.83 0, 160 3.17, 160 9.5 M150.5 0 C156.83 0, 160 3.17, 160 9.5 M160 9.5 C160 13.54, 160 17.59, 160 28.5 M160 9.5 C160 17.01, 160 24.51, 160 28.5 M160 28.5 C160 34.83, 156.83 38, 150.5 38 M160 28.5 C160 34.83, 156.83 38, 150.5 38 M150.5 38 C121.97 38, 93.44 38, 9.5 38 M150.5 38 C119.57 38, 88.65 38, 9.5 38 M9.5 38 C3.17 38, 0 34.83, 0 28.5 M9.5 38 C3.17 38, 0 34.83, 0 28.5 M0 28.5 C0 21.22, 0 13.94, 0 9.5 M0 28.5 C0 21.13, 0 13.76, 0 9.5 M0 9.5 C0 3.17, 3.17 0, 9.5 0 M0 9.5 C0 3.17, 3.17 0, 9.5 0" stroke="#1971c2" stroke-width="2" fill="none"></path></g><g transform="translate(20 278) rotate(0 70 12.5)"><text x="70" y="0" font-family="Segoe UI Emoji" font-size="13px" fill="#1971c2" text-anchor="middle" style="white-space: pre;" direction="ltr" dominant-baseline="text-before-edge">💾 aircraft</text></g><g stroke-linecap="round" transform="translate(190 170) rotate(0 85 27.5)"><path d="M13.75 0 C47.05 0, 80.35 0, 156.25 0 C165.42 0, 170 4.58, 170 13.75 C170 24.25, 170 34.75, 170 41.25 C170 50.42, 165.42 55, 156.25 55 C105.42 55, 54.59 55, 13.75 55 C4.58 55, 0 50.42, 0 41.25 C0 31.33, 0 21.41, 0 13.75 C0 4.58, 4.58 0, 13.75 0" stroke="none" stroke-width="0" fill="#fff9db"></path><path d="M13.75 0 C42.32 0, 70.9 0, 156.25 0 M156.25 0 C165.42 0, 170 4.58, 170 13.75 M170 13.75 C170 21.95, 170 30.15, 170 41.25 M170 41.25 C170 50.42, 165.42 55, 156.25 55 M156.25 55 C120.94 55, 85.64 55, 13.75 55 M13.75 55 C4.58 55, 0 50.42, 0 41.25 M0 41.25 C0 35.69, 0 30.12, 0 13.75 M0 13.75 C0 4.58, 4.58 0, 13.75 0" stroke="#f59f00" stroke-width="2.5" fill="none" stroke-dasharray="8 10"></path></g><g transform="translate(200 176) rotate(0 75 21)"><text x="75" y="0" font-family="Segoe UI Emoji" font-size="12px" fill="#f59f00" text-anchor="middle" style="white-space: pre;" direction="ltr" dominant-baseline="text-before-edge">Engine sensors only</text><text x="75" y="15" font-family="Segoe UI Emoji" font-size="12px" fill="#f59f00" text-anchor="middle" style="white-space: pre;" direction="ltr" dominant-baseline="text-before-edge">GROUP BY aircraft_id</text></g><g stroke-linecap="round" transform="translate(440 160) rotate(0 50 40)"><path d="M63.75 10.25 C72.64 18, 81.52 25.75, 87.25 30.75 C100 41, 100 41, 87.25 51.25 C79.79 57.12, 72.33 62.99, 63.75 69.75 C51 80, 51 80, 38.25 69.75 C30.21 63.92, 22.17 58.09, 12.75 51.25 C0 41, 0 41, 12.75 30.75 C21.56 23.66, 30.38 16.58, 38.25 10.25 C51 0, 51 0, 63.75 10.25" stroke="none" stroke-width="0" fill="#ffec99"></path><path d="M63.75 10.25 C68.46 14.36, 73.18 18.47, 87.25 30.75 M63.75 10.25 C72.38 17.78, 81.01 25.31, 87.25 30.75 M87.25 30.75 C100 41, 100 41, 87.25 51.25 M87.25 30.75 C100 41, 100 41, 87.25 51.25 M87.25 51.25 C80.6 56.48, 73.96 61.71, 63.75 69.75 M87.25 51.25 C78.95 57.78, 70.65 64.32, 63.75 69.75 M63.75 69.75 C51 80, 51 80, 38.25 69.75 M63.75 69.75 C51 80, 51 80, 38.25 69.75 M38.25 69.75 C31.49 64.85, 24.73 59.94, 12.75 51.25 M38.25 69.75 C31.04 64.52, 23.84 59.29, 12.75 51.25 M12.75 51.25 C0 41, 0 41, 12.75 30.75 M12.75 51.25 C0 41, 0 41, 12.75 30.75 M12.75 30.75 C21.17 23.98, 29.6 17.21, 38.25 10.25 M12.75 30.75 C20.24 24.73, 27.72 18.71, 38.25 10.25 M38.25 10.25 C51 0, 51 0, 63.75 10.25 M38.25 10.25 C51 0, 51 0, 63.75 10.25" stroke="#495057" stroke-width="2" fill="none"></path></g><g transform="translate(460 187) rotate(0 30 12.5)"><text x="30" y="0" font-family="Segoe UI Emoji" font-size="14px" fill="#495057" text-anchor="middle" style="white-space: pre;" direction="ltr" dominant-baseline="text-before-edge">🔗 JOIN</text></g><g stroke-linecap="round"><g transform="translate(490 107) rotate(0 0 25)"><path d="M0 0 C0 8.33, 0 41.67, 0 50 M0 0 C0 8.33, 0 41.67, 0 50" stroke="#1098ad" stroke-width="2" fill="none"></path></g><g transform="translate(490 107) rotate(0 0 25)"><path d="M-8.55 26.51 C-6.84 31.22, -5.12 35.93, 0 50 M-8.55 26.51 C-5.89 33.82, -3.23 41.13, 0 50" stroke="#1098ad" stroke-width="2" fill="none"></path></g><g transform="translate(490 107) rotate(0 0 25)"><path d="M8.55 26.51 C6.84 31.22, 5.12 35.93, 0 50 M8.55 26.51 C5.89 33.82, 3.23 41.13, 0 50" stroke="#1098ad" stroke-width="2" fill="none"></path></g></g><mask></mask><g stroke-linecap="round"><g transform="translate(172 200) rotate(0 8 0)"><path d="M0 0 C2.67 0, 13.33 0, 16 0 M0 0 C2.67 0, 13.33 0, 16 0" stroke="#1971c2" stroke-width="2" fill="none"></path></g><g transform="translate(172 200) rotate(0 8 0)"><path d="M8.48 2.74 C9.99 2.19, 11.5 1.64, 16 0 M8.48 2.74 C11.36 1.69, 14.24 0.64, 16 0" stroke="#1971c2" stroke-width="2" fill="none"></path></g><g transform="translate(172 200) rotate(0 8 0)"><path d="M8.48 -2.74 C9.99 -2.19, 11.5 -1.64, 16 0 M8.48 -2.74 C11.36 -1.69, 14.24 -0.64, 16 0" stroke="#1971c2" stroke-width="2" fill="none"></path></g></g><mask></mask><g stroke-linecap="round"><g transform="translate(362 200) rotate(0 38 0)"><path d="M0 0 C12.67 0, 63.33 0, 76 0 M0 0 C12.67 0, 63.33 0, 76 0" stroke="#f59f00" stroke-width="2" fill="none"></path></g><g transform="translate(362 200) rotate(0 38 0)"><path d="M47.81 10.26 C53.46 8.2, 59.12 6.15, 76 0 M47.81 10.26 C55 7.64, 62.2 5.02, 76 0" stroke="#f59f00" stroke-width="2" fill="none"></path></g><g transform="translate(362 200) rotate(0 38 0)"><path d="M47.81 -10.26 C53.46 -8.2, 59.12 -6.15, 76 0 M47.81 -10.26 C55 -7.64, 62.2 -5.02, 76 0" stroke="#f59f00" stroke-width="2" fill="none"></path></g></g><mask></mask><g stroke-linecap="round" transform="translate(410 285) rotate(0 85 25)"><path d="M12.5 0 C52.82 0, 93.14 0, 157.5 0 C165.83 0, 170 4.17, 170 12.5 C170 21.1, 170 29.71, 170 37.5 C170 45.83, 165.83 50, 157.5 50 C100.61 50, 43.73 50, 12.5 50 C4.17 50, 0 45.83, 0 37.5 C0 28.45, 0 19.41, 0 12.5 C0 4.17, 4.17 0, 12.5 0" stroke="none" stroke-width="0" fill="#d3f9d8"></path><path d="M12.5 0 C41.58 0, 70.66 0, 157.5 0 M12.5 0 C59.95 0, 107.4 0, 157.5 0 M157.5 0 C165.83 0, 170 4.17, 170 12.5 M157.5 0 C165.83 0, 170 4.17, 170 12.5 M170 12.5 C170 21.76, 170 31.01, 170 37.5 M170 12.5 C170 20.02, 170 27.54, 170 37.5 M170 37.5 C170 45.83, 165.83 50, 157.5 50 M170 37.5 C170 45.83, 165.83 50, 157.5 50 M157.5 50 C107.71 50, 57.92 50, 12.5 50 M157.5 50 C105.05 50, 52.6 50, 12.5 50 M12.5 50 C4.17 50, 0 45.83, 0 37.5 M12.5 50 C4.17 50, 0 45.83, 0 37.5 M0 37.5 C0 28.39, 0 19.28, 0 12.5 M0 37.5 C0 30.61, 0 23.72, 0 12.5 M0 12.5 C0 4.17, 4.17 0, 12.5 0 M0 12.5 C0 4.17, 4.17 0, 12.5 0" stroke="#2f9e44" stroke-width="2" fill="none"></path></g><g transform="translate(420 293) rotate(0 75 16)"><text x="75" y="0" font-family="Segoe UI Emoji" font-size="13px" fill="#2f9e44" text-anchor="middle" style="white-space: pre;" direction="ltr" dominant-baseline="text-before-edge">✅ Flight Ops +</text><text x="75" y="16.25" font-family="Segoe UI Emoji" font-size="13px" fill="#2f9e44" text-anchor="middle" style="white-space: pre;" direction="ltr" dominant-baseline="text-before-edge">Engine Performance</text></g><g stroke-linecap="round"><g transform="translate(490 242) rotate(0 0 20)"><path d="M0 0 C0 6.67, 0 33.33, 0 40 M0 0 C0 6.67, 0 33.33, 0 40" stroke="#2f9e44" stroke-width="2" fill="none"></path></g><g transform="translate(490 242) rotate(0 0 20)"><path d="M-6.84 21.21 C-5.47 24.98, -4.1 28.74, 0 40 M-6.84 21.21 C-4.99 26.3, -3.13 31.4, 0 40" stroke="#2f9e44" stroke-width="2" fill="none"></path></g><g transform="translate(490 242) rotate(0 0 20)"><path d="M6.84 21.21 C5.47 24.98, 4.1 28.74, 0 40 M6.84 21.21 C4.99 26.3, 3.13 31.4, 0 40" stroke="#2f9e44" stroke-width="2" fill="none"></path></g></g><mask></mask><g stroke-opacity="0.8" fill-opacity="0.8" transform="translate(35 122) rotate(0 55 8)"><text x="55" y="0" font-family="Segoe UI Emoji" font-size="11px" fill="#1971c2" text-anchor="middle" style="white-space: pre;" direction="ltr" dominant-baseline="text-before-edge">Delta Tables</text></g><g stroke-opacity="0.8" fill-opacity="0.8" transform="translate(420 248) rotate(0 70 8)"><text x="70" y="0" font-family="Segoe UI Emoji" font-size="11px" fill="#868e96" text-anchor="middle" style="white-space: pre;" direction="ltr" dominant-baseline="text-before-edge">ON aircraft_id</text></g></svg>