<svg version="1.1" xmlns="http://www.w3.org/2000/svg" viewBox="0 0 980 255" width="980" height="255">
  <!-- svg-source:excalidraw -->
  
  <defs>
    <style class="style-fonts">
      @font-face {
        font-family: "Virgil";
        src: url("https://unpkg.com/@excalidraw/excalidraw@undefined/dist/excalidraw-assets/Virgil.woff2");
      }
      @font-face {
        font-family: "Cascadia";
        src: url("https://unpkg.com/@excalidraw/excalidraw@undefined/dist/excalidraw-assets/Cascadia.woff2");
      }
      @font-face {
        font-family: "Assistant";
        src: url("https://unpkg.com/@excalidraw/excalidraw@undefined/dist/excalidraw-assets/Assistant-Regular.woff2");
      }
    </style>
    
  </defs>
  <rect x="0" y="0" width="980" height="255" fill="#ffffff"></rect><g transform="translate(250 10) rotate(0 115 15)"><text x="115" y="0" font-family="Segoe UI Emoji" font-size="24px" fill="#1e1e1e" text-anchor="middle" style="white-space: pre;" direction="ltr" dominant-baseline="text-before-edge">Verify Data Sources</text></g><g stroke-linecap="round" transform="translate(10 100) rotate(0 70 30)"><path d="M15 0 C53.67 0, 92.34 0, 125 0 C135 0, 140 5, 140 15 C140 21.63, 140 28.27, 140 45 C140 55, 135 60, 125 60 C96.92 60, 68.84 60, 15 60 C5 60, 0 55, 0 45 C0 35.76, 0 26.53, 0 15 C0 5, 5 0, 15 0" stroke="none" stroke-width="0" fill="#ffec99"></path><path d="M15 0 C54.46 0, 93.92 0, 125 0 M15 0 C52.75 0, 90.5 0, 125 0 M125 0 C135 0, 140 5, 140 15 M125 0 C135 0, 140 5, 140 15 M140 15 C140 22.98, 140 30.95, 140 45 M140 15 C140 23.5, 140 32, 140 45 M140 45 C140 55, 135 60, 125 60 M140 45 C140 55, 135 60, 125 60 M125 60 C94.09 60, 63.18 60, 15 60 M125 60 C94.3 60, 63.6 60, 15 60 M15 60 C5 60, 0 55, 0 45 M15 60 C5 60, 0 55, 0 45 M0 45 C0 34.77, 0 24.54, 0 15 M0 45 C0 33.25, 0 21.5, 0 15 M0 15 C0 5, 5 0, 15 0 M0 15 C0 5, 5 0, 15 0" stroke="#495057" stroke-width="2" fill="none"></path></g><g transform="translate(30 115) rotate(0 50 15)"><text x="50" y="0" font-family="Segoe UI Emoji" font-size="16px" fill="#495057" text-anchor="middle" style="white-space: pre;" direction="ltr" dominant-baseline="text-before-edge">📊 Spark SQL</text></g><g stroke-linecap="round" transform="translate(250 70) rotate(0 90 30)"><path d="M15 0 C73.73 0, 132.46 0, 165 0 C175 0, 180 5, 180 15 C180 23.15, 180 31.31, 180 45 C180 55, 175 60, 165 60 C116.09 60, 67.17 60, 15 60 C5 60, 0 55, 0 45 C0 33.17, 0 21.34, 0 15 C0 5, 5 0, 15 0" stroke="none" stroke-width="0" fill="#dbe4ff"></path><path d="M15 0 C68.81 0, 122.62 0, 165 0 M15 0 C58.08 0, 101.15 0, 165 0 M165 0 C175 0, 180 5, 180 15 M165 0 C175 0, 180 5, 180 15 M180 15 C180 24.03, 180 33.05, 180 45 M180 15 C180 22.87, 180 30.74, 180 45 M180 45 C180 55, 175 60, 165 60 M180 45 C180 55, 175 60, 165 60 M165 60 C118.15 60, 71.3 60, 15 60 M165 60 C118.39 60, 71.78 60, 15 60 M15 60 C5 60, 0 55, 0 45 M15 60 C5 60, 0 55, 0 45 M0 45 C0 35.56, 0 26.12, 0 15 M0 45 C0 34.66, 0 24.33, 0 15 M0 15 C0 5, 5 0, 15 0 M0 15 C0 5, 5 0, 15 0" stroke="#1971c2" stroke-width="2" fill="none"></path></g><g transform="translate(265 85) rotate(0 75 15)"><text x="75" y="0" font-family="Segoe UI Emoji" font-size="16px" fill="#1971c2" text-anchor="middle" style="white-space: pre;" direction="ltr" dominant-baseline="text-before-edge">💾 Delta Lakehouse</text></g><g stroke-linecap="round" transform="translate(250 170) rotate(0 90 30)"><path d="M15 0 C49.72 0, 84.45 0, 165 0 C175 0, 180 5, 180 15 C180 24.68, 180 34.35, 180 45 C180 55, 175 60, 165 60 C105.46 60, 45.92 60, 15 60 C5 60, 0 55, 0 45 C0 36.57, 0 28.15, 0 15 C0 5, 5 0, 15 0" stroke="none" stroke-width="0" fill="#f3d9fa"></path><path d="M15 0 C68.81 0, 122.62 0, 165 0 M15 0 C49.67 0, 84.35 0, 165 0 M165 0 C175 0, 180 5, 180 15 M165 0 C175 0, 180 5, 180 15 M180 15 C180 25.08, 180 35.15, 180 45 M180 15 C180 22.24, 180 29.48, 180 45 M180 45 C180 55, 175 60, 165 60 M180 45 C180 55, 175 60, 165 60 M165 60 C113.45 60, 61.89 60, 15 60 M165 60 C113.64 60, 62.29 60, 15 60 M15 60 C5 60, 0 55, 0 45 M15 60 C5 60, 0 55, 0 45 M0 45 C0 36.35, 0 27.7, 0 15 M0 45 C0 36.08, 0 27.16, 0 15 M0 15 C0 5, 5 0, 15 0 M0 15 C0 5, 5 0, 15 0" stroke="#9c36b5" stroke-width="2" fill="none"></path></g><g transform="translate(265 185) rotate(0 75 15)"><text x="75" y="0" font-family="Segoe UI Emoji" font-size="16px" fill="#9c36b5" text-anchor="middle" style="white-space: pre;" direction="ltr" dominant-baseline="text-before-edge">🔷 Neo4j (UC JDBC)</text></g><g stroke-linecap="round" transform="translate(510 170) rotate(0 80 30)"><path d="M15 0 C50.29 0, 85.58 0, 145 0 C155 0, 160 5, 160 15 C160 26.2, 160 37.39, 160 45 C160 55, 155 60, 145 60 C110.19 60, 75.38 60, 15 60 C5 60, 0 55, 0 45 C0 33.98, 0 22.96, 0 15 C0 5, 5 0, 15 0" stroke="none" stroke-width="0" fill="#f3d9fa"></path><path d="M15 0 C61.64 0, 108.28 0, 145 0 M15 0 C63.77 0, 112.54 0, 145 0 M145 0 C155 0, 160 5, 160 15 M145 0 C155 0, 160 5, 160 15 M160 15 C160 26.13, 160 37.25, 160 45 M160 15 C160 21.61, 160 28.23, 160 45 M160 45 C160 55, 155 60, 145 60 M160 45 C160 55, 155 60, 145 60 M145 60 C96.25 60, 47.49 60, 15 60 M145 60 C96.38 60, 47.76 60, 15 60 M15 60 C5 60, 0 55, 0 45 M15 60 C5 60, 0 55, 0 45 M0 45 C0 37.14, 0 29.28, 0 15 M0 45 C0 37.49, 0 29.99, 0 15 M0 15 C0 5, 5 0, 15 0 M0 15 C0 5, 5 0, 15 0" stroke="#9c36b5" stroke-width="2" fill="none"></path></g><g transform="translate(525 185) rotate(0 65 15)"><text x="65" y="0" font-family="Segoe UI Emoji" font-size="16px" fill="#9c36b5" text-anchor="middle" style="white-space: pre;" direction="ltr" dominant-baseline="text-before-edge">remote_query()</text></g><g stroke-linecap="round" transform="translate(510 55) rotate(0 120 45)"><path d="M22.5 0 C83.23 0, 143.96 0, 217.5 0 C232.5 0, 240 7.5, 240 22.5 C240 32.58, 240 42.65, 240 67.5 C240 82.5, 232.5 90, 217.5 90 C151.47 90, 85.43 90, 22.5 90 C7.5 90, 0 82.5, 0 67.5 C0 56.08, 0 44.66, 0 22.5 C0 7.5, 7.5 0, 22.5 0" stroke="none" stroke-width="0" fill="#d3f9d8"></path><path d="M22.5 0 C92.46 0, 162.42 0, 217.5 0 M22.5 0 C84.73 0, 146.96 0, 217.5 0 M217.5 0 C232.5 0, 240 7.5, 240 22.5 M217.5 0 C232.5 0, 240 7.5, 240 22.5 M240 22.5 C240 31.76, 240 41.03, 240 67.5 M240 22.5 C240 40.48, 240 58.45, 240 67.5 M240 67.5 C240 82.5, 232.5 90, 217.5 90 M240 67.5 C240 82.5, 232.5 90, 217.5 90 M217.5 90 C177.26 90, 137.01 90, 22.5 90 M217.5 90 C177.4 90, 137.29 90, 22.5 90 M22.5 90 C7.5 90, 0 82.5, 0 67.5 M22.5 90 C7.5 90, 0 82.5, 0 67.5 M0 67.5 C0 56.9, 0 46.3, 0 22.5 M0 67.5 C0 58.36, 0 49.22, 0 22.5 M0 22.5 C0 7.5, 7.5 0, 22.5 0 M0 22.5 C0 7.5, 7.5 0, 22.5 0" stroke="#2f9e44" stroke-width="2" fill="none"></path></g><g transform="translate(525 72) rotate(0 105 28)"><text x="105" y="0" font-family="Segoe UI Emoji" font-size="16px" fill="#2f9e44" text-anchor="middle" style="white-space: pre;" direction="ltr" dominant-baseline="text-before-edge">✅ SELECT COUNT(*)</text><text x="105" y="20" font-family="Segoe UI Emoji" font-size="16px" fill="#2f9e44" text-anchor="middle" style="white-space: pre;" direction="ltr" dominant-baseline="text-before-edge">FROM each table</text></g><g stroke-linecap="round" transform="translate(730 155) rotate(0 120 45)"><path d="M22.5 0 C91.02 0, 159.55 0, 217.5 0 C232.5 0, 240 7.5, 240 22.5 C240 34.86, 240 47.22, 240 67.5 C240 82.5, 232.5 90, 217.5 90 C176.65 90, 135.81 90, 22.5 90 C7.5 90, 0 82.5, 0 67.5 C0 52.19, 0 36.87, 0 22.5 C0 7.5, 7.5 0, 22.5 0" stroke="none" stroke-width="0" fill="#d3f9d8"></path><path d="M22.5 0 C92.46 0, 162.42 0, 217.5 0 M22.5 0 C73.81 0, 125.12 0, 217.5 0 M217.5 0 C232.5 0, 240 7.5, 240 22.5 M217.5 0 C232.5 0, 240 7.5, 240 22.5 M240 22.5 C240 33.34, 240 44.18, 240 67.5 M240 22.5 C240 39.53, 240 56.57, 240 67.5 M240 67.5 C240 82.5, 232.5 90, 217.5 90 M240 67.5 C240 82.5, 232.5 90, 217.5 90 M217.5 90 C171.14 90, 124.79 90, 22.5 90 M217.5 90 C171.23 90, 124.95 90, 22.5 90 M22.5 90 C7.5 90, 0 82.5, 0 67.5 M22.5 90 C7.5 90, 0 82.5, 0 67.5 M0 67.5 C0 58.09, 0 48.68, 0 22.5 M0 67.5 C0 51.48, 0 35.47, 0 22.5 M0 22.5 C0 7.5, 7.5 0, 22.5 0 M0 22.5 C0 7.5, 7.5 0, 22.5 0" stroke="#2f9e44" stroke-width="2" fill="none"></path></g><g transform="translate(745 172) rotate(0 105 28)"><text x="105" y="0" font-family="Segoe UI Emoji" font-size="16px" fill="#2f9e44" text-anchor="middle" style="white-space: pre;" direction="ltr" dominant-baseline="text-before-edge">✅ SELECT COUNT(*)</text><text x="105" y="20" font-family="Segoe UI Emoji" font-size="16px" fill="#2f9e44" text-anchor="middle" style="white-space: pre;" direction="ltr" dominant-baseline="text-before-edge">per node label</text></g><g stroke-linecap="round"><g transform="translate(150 115) rotate(0 50 -7.5)"><path d="M0 0 C16.67 -2.5, 83.33 -12.5, 100 -15 M0 0 C16.67 -2.5, 83.33 -12.5, 100 -15" stroke="#495057" stroke-width="2" fill="none"></path></g><g transform="translate(150 115) rotate(0 50 -7.5)"><path d="M73.64 -0.67 C83.1 -5.81, 92.56 -10.95, 100 -15 M73.64 -0.67 C79.1 -3.64, 84.56 -6.61, 100 -15" stroke="#495057" stroke-width="2" fill="none"></path></g><g transform="translate(150 115) rotate(0 50 -7.5)"><path d="M70.6 -20.97 C81.15 -18.83, 91.7 -16.68, 100 -15 M70.6 -20.97 C76.69 -19.73, 82.78 -18.49, 100 -15" stroke="#495057" stroke-width="2" fill="none"></path></g></g><mask></mask><g stroke-linecap="round"><g transform="translate(150 145) rotate(0 50 27.5)"><path d="M0 0 C16.67 9.17, 83.33 45.83, 100 55 M0 0 C16.67 9.17, 83.33 45.83, 100 55" stroke="#495057" stroke-width="2" fill="none"></path></g><g transform="translate(150 145) rotate(0 50 27.5)"><path d="M70.35 50.4 C80.99 52.05, 91.63 53.7, 100 55 M70.35 50.4 C78.63 51.69, 86.9 52.97, 100 55" stroke="#495057" stroke-width="2" fill="none"></path></g><g transform="translate(150 145) rotate(0 50 27.5)"><path d="M80.24 32.42 C87.33 40.52, 94.42 48.62, 100 55 M80.24 32.42 C85.76 38.73, 91.27 45.03, 100 55" stroke="#495057" stroke-width="2" fill="none"></path></g></g><mask></mask><g stroke-linecap="round"><g transform="translate(430 100) rotate(0 40 0)"><path d="M0 0 C13.33 0, 66.67 0, 80 0 M0 0 C13.33 0, 66.67 0, 80 0" stroke="#1971c2" stroke-width="2" fill="none"></path></g><g transform="translate(430 100) rotate(0 40 0)"><path d="M51.81 10.26 C61.92 6.58, 72.04 2.9, 80 0 M51.81 10.26 C61.71 6.66, 71.61 3.06, 80 0" stroke="#1971c2" stroke-width="2" fill="none"></path></g><g transform="translate(430 100) rotate(0 40 0)"><path d="M51.81 -10.26 C61.92 -6.58, 72.04 -2.9, 80 0 M51.81 -10.26 C61.71 -6.66, 71.61 -3.06, 80 0" stroke="#1971c2" stroke-width="2" fill="none"></path></g></g><mask></mask><g stroke-linecap="round"><g transform="translate(430 200) rotate(0 40 0)"><path d="M0 0 C13.33 0, 66.67 0, 80 0 M0 0 C13.33 0, 66.67 0, 80 0" stroke="#9c36b5" stroke-width="2" fill="none"></path></g><g transform="translate(430 200) rotate(0 40 0)"><path d="M51.81 10.26 C61.92 6.58, 72.04 2.9, 80 0 M51.81 10.26 C58.1 7.97, 64.39 5.68, 80 0" stroke="#9c36b5" stroke-width="2" fill="none"></path></g><g transform="translate(430 200) rotate(0 40 0)"><path d="M51.81 -10.26 C61.92 -6.58, 72.04 -2.9, 80 0 M51.81 -10.26 C58.1 -7.97, 64.39 -5.68, 80 0" stroke="#9c36b5" stroke-width="2" fill="none"></path></g></g><mask></mask><g stroke-linecap="round"><g transform="translate(670 200) rotate(0 30 0)"><path d="M0 0 C10 0, 50 0, 60 0 M0 0 C10 0, 50 0, 60 0" stroke="#9c36b5" stroke-width="2" fill="none"></path></g><g transform="translate(670 200) rotate(0 30 0)"><path d="M31.81 10.26 C41.92 6.58, 52.04 2.9, 60 0 M31.81 10.26 C40.13 7.23, 48.45 4.2, 60 0" stroke="#9c36b5" stroke-width="2" fill="none"></path></g><g transform="translate(670 200) rotate(0 30 0)"><path d="M31.81 -10.26 C41.92 -6.58, 52.04 -2.9, 60 0 M31.81 -10.26 C40.13 -7.23, 48.45 -4.2, 60 0" stroke="#9c36b5" stroke-width="2" fill="none"></path></g></g><mask></mask></svg>