<svg version="1.1" xmlns="http://www.w3.org/2000/svg" viewBox="0 0 930 350" width="930" height="350">
  <!-- svg-source:excalidraw -->
  
  <defs>
    <style class="style-fonts">
      @font-face {
        font-family: "Virgil";
        src: url("https://unpkg.com/@excalidraw/excalidraw@undefined/dist/excalidraw-assets/Virgil.woff2");
      }
      @font-face {
        font-family: "Cascadia";
        src: url("https://unpkg.com/@excalidraw/excalidraw@undefined/dist/excalidraw-assets/Cascadia.woff2");
      }
      @font-face {
        font-family: "Assistant";
        src: url("https://unpkg.com/@excalidraw/excalidraw@undefined/dist/excalidraw-assets/Assistant-Regular.woff2");
      }
    </style>
    
  </defs>
  <rect x="0" y="0" width="930" height="350" fill="#ffffff"></rect><g transform="translate(190 10) rotate(0 160 15)"><text x="160" y="0" font-family="Segoe UI Emoji" font-size="24px" fill="#1e1e1e" text-anchor="middle" style="white-space: pre;" direction="ltr" dominant-baseline="text-before-edge">Fleet Summary — Data Flow</text></g><g stroke-linecap="round" transform="translate(10 162) rotate(0 80 35)"><path d="M17.5 0 C51.06 0, 84.62 0, 142.5 0 C154.17 0, 160 5.83, 160 17.5 C160 28.39, 160 39.28, 160 52.5 C160 64.17, 154.17 70, 142.5 70 C100.85 70, 59.2 70, 17.5 70 C5.83 70, 0 64.17, 0 52.5 C0 42.04, 0 31.58, 0 17.5 C0 5.83, 5.83 0, 17.5 0" stroke="none" stroke-width="0" fill="#ffec99"></path><path d="M17.5 0 C48.7 0, 79.89 0, 142.5 0 M17.5 0 C49.2 0, 80.9 0, 142.5 0 M142.5 0 C154.17 0, 160 5.83, 160 17.5 M142.5 0 C154.17 0, 160 5.83, 160 17.5 M160 17.5 C160 26.18, 160 34.87, 160 52.5 M160 17.5 C160 31.24, 160 44.98, 160 52.5 M160 52.5 C160 64.17, 154.17 70, 142.5 70 M160 52.5 C160 64.17, 154.17 70, 142.5 70 M142.5 70 C109.58 70, 76.67 70, 17.5 70 M142.5 70 C111.39 70, 80.28 70, 17.5 70 M17.5 70 C5.83 70, 0 64.17, 0 52.5 M17.5 70 C5.83 70, 0 64.17, 0 52.5 M0 52.5 C0 44.85, 0 37.2, 0 17.5 M0 52.5 C0 40.49, 0 28.47, 0 17.5 M0 17.5 C0 5.83, 5.83 0, 17.5 0 M0 17.5 C0 5.83, 5.83 0, 17.5 0" stroke="#495057" stroke-width="2" fill="none"></path></g><g transform="translate(20 172) rotate(0 70 25)"><text x="70" y="0" font-family="Segoe UI Emoji" font-size="18px" fill="#495057" text-anchor="middle" style="white-space: pre;" direction="ltr" dominant-baseline="text-before-edge">Spark SQL</text><text x="70" y="22.5" font-family="Segoe UI Emoji" font-size="18px" fill="#495057" text-anchor="middle" style="white-space: pre;" direction="ltr" dominant-baseline="text-before-edge">CROSS JOIN</text></g><g stroke-linecap="round" transform="translate(370 55) rotate(0 155 22.5)"><path d="M11.25 0 C82.65 0, 154.05 0, 298.75 0 C306.25 0, 310 3.75, 310 11.25 C310 16.63, 310 22.02, 310 33.75 C310 41.25, 306.25 45, 298.75 45 C197.55 45, 96.35 45, 11.25 45 C3.75 45, 0 41.25, 0 33.75 C0 27.27, 0 20.79, 0 11.25 C0 3.75, 3.75 0, 11.25 0" stroke="none" stroke-width="0" fill="#f3d9fa"></path><path d="M11.25 0 C83.01 0, 154.77 0, 298.75 0 M11.25 0 C97.94 0, 184.63 0, 298.75 0 M298.75 0 C306.25 0, 310 3.75, 310 11.25 M298.75 0 C306.25 0, 310 3.75, 310 11.25 M310 11.25 C310 15.88, 310 20.5, 310 33.75 M310 11.25 C310 17.96, 310 24.67, 310 33.75 M310 33.75 C310 41.25, 306.25 45, 298.75 45 M310 33.75 C310 41.25, 306.25 45, 298.75 45 M298.75 45 C239.99 45, 181.23 45, 11.25 45 M298.75 45 C186.27 45, 73.78 45, 11.25 45 M11.25 45 C3.75 45, 0 41.25, 0 33.75 M11.25 45 C3.75 45, 0 41.25, 0 33.75 M0 33.75 C0 24.75, 0 15.76, 0 11.25 M0 33.75 C0 28.55, 0 23.35, 0 11.25 M0 11.25 C0 3.75, 3.75 0, 11.25 0 M0 11.25 C0 3.75, 3.75 0, 11.25 0" stroke="#9c36b5" stroke-width="2" fill="none"></path></g><g transform="translate(380 62) rotate(0 145 15)"><text x="145" y="0" font-family="Segoe UI Emoji" font-size="14px" fill="#9c36b5" text-anchor="middle" style="white-space: pre;" direction="ltr" dominant-baseline="text-before-edge">🔷 remote_query() → Neo4j</text></g><g transform="translate(690 65) rotate(0 90 12.5)"><text x="0" y="0" font-family="Segoe UI Emoji" font-size="12px" fill="#9c36b5" text-anchor="start" style="white-space: pre;" direction="ltr" dominant-baseline="text-before-edge">COUNT MaintenanceEvent</text></g><g stroke-linecap="round" transform="translate(370 115) rotate(0 155 22.5)"><path d="M11.25 0 C82.61 0, 153.97 0, 298.75 0 C306.25 0, 310 3.75, 310 11.25 C310 17.84, 310 24.43, 310 33.75 C310 41.25, 306.25 45, 298.75 45 C210.71 45, 122.67 45, 11.25 45 C3.75 45, 0 41.25, 0 33.75 C0 26.54, 0 19.33, 0 11.25 C0 3.75, 3.75 0, 11.25 0" stroke="none" stroke-width="0" fill="#f3d9fa"></path><path d="M11.25 0 C83.02 0, 154.8 0, 298.75 0 M11.25 0 C74.92 0, 138.6 0, 298.75 0 M298.75 0 C306.25 0, 310 3.75, 310 11.25 M298.75 0 C306.25 0, 310 3.75, 310 11.25 M310 11.25 C310 19.82, 310 28.38, 310 33.75 M310 11.25 C310 20.1, 310 28.96, 310 33.75 M310 33.75 C310 41.25, 306.25 45, 298.75 45 M310 33.75 C310 41.25, 306.25 45, 298.75 45 M298.75 45 C194.93 45, 91.12 45, 11.25 45 M298.75 45 C198.28 45, 97.81 45, 11.25 45 M11.25 45 C3.75 45, 0 41.25, 0 33.75 M11.25 45 C3.75 45, 0 41.25, 0 33.75 M0 33.75 C0 27.72, 0 21.69, 0 11.25 M0 33.75 C0 24.86, 0 15.97, 0 11.25 M0 11.25 C0 3.75, 3.75 0, 11.25 0 M0 11.25 C0 3.75, 3.75 0, 11.25 0" stroke="#9c36b5" stroke-width="2" fill="none"></path></g><g transform="translate(380 122) rotate(0 145 15)"><text x="145" y="0" font-family="Segoe UI Emoji" font-size="14px" fill="#9c36b5" text-anchor="middle" style="white-space: pre;" direction="ltr" dominant-baseline="text-before-edge">🔷 remote_query() → Neo4j</text></g><g transform="translate(690 125) rotate(0 80 12.5)"><text x="0" y="0" font-family="Segoe UI Emoji" font-size="12px" fill="#9c36b5" text-anchor="start" style="white-space: pre;" direction="ltr" dominant-baseline="text-before-edge">COUNT critical events</text></g><g stroke-linecap="round" transform="translate(370 175) rotate(0 155 22.5)"><path d="M11.25 0 C82.56 0, 153.88 0, 298.75 0 C306.25 0, 310 3.75, 310 11.25 C310 19.05, 310 26.84, 310 33.75 C310 41.25, 306.25 45, 298.75 45 C223.87 45, 148.99 45, 11.25 45 C3.75 45, 0 41.25, 0 33.75 C0 25.81, 0 17.87, 0 11.25 C0 3.75, 3.75 0, 11.25 0" stroke="none" stroke-width="0" fill="#f3d9fa"></path><path d="M11.25 0 C83.04 0, 154.82 0, 298.75 0 M11.25 0 C109.41 0, 207.56 0, 298.75 0 M298.75 0 C306.25 0, 310 3.75, 310 11.25 M298.75 0 C306.25 0, 310 3.75, 310 11.25 M310 11.25 C310 19.25, 310 27.26, 310 33.75 M310 11.25 C310 17.75, 310 24.24, 310 33.75 M310 33.75 C310 41.25, 306.25 45, 298.75 45 M310 33.75 C310 41.25, 306.25 45, 298.75 45 M298.75 45 C207.38 45, 116 45, 11.25 45 M298.75 45 C210.3 45, 121.85 45, 11.25 45 M11.25 45 C3.75 45, 0 41.25, 0 33.75 M11.25 45 C3.75 45, 0 41.25, 0 33.75 M0 33.75 C0 26.19, 0 18.63, 0 11.25 M0 33.75 C0 25.66, 0 17.58, 0 11.25 M0 11.25 C0 3.75, 3.75 0, 11.25 0 M0 11.25 C0 3.75, 3.75 0, 11.25 0" stroke="#9c36b5" stroke-width="2" fill="none"></path></g><g transform="translate(380 182) rotate(0 145 15)"><text x="145" y="0" font-family="Segoe UI Emoji" font-size="14px" fill="#9c36b5" text-anchor="middle" style="white-space: pre;" direction="ltr" dominant-baseline="text-before-edge">🔷 remote_query() → Neo4j</text></g><g transform="translate(690 185) rotate(0 50 12.5)"><text x="0" y="0" font-family="Segoe UI Emoji" font-size="12px" fill="#9c36b5" text-anchor="start" style="white-space: pre;" direction="ltr" dominant-baseline="text-before-edge">COUNT Flight</text></g><g stroke-linecap="round" transform="translate(370 235) rotate(0 155 22.5)"><path d="M11.25 0 C82.52 0, 153.79 0, 298.75 0 C306.25 0, 310 3.75, 310 11.25 C310 15.75, 310 20.25, 310 33.75 C310 41.25, 306.25 45, 298.75 45 C237.03 45, 175.32 45, 11.25 45 C3.75 45, 0 41.25, 0 33.75 C0 25.08, 0 16.41, 0 11.25 C0 3.75, 3.75 0, 11.25 0" stroke="none" stroke-width="0" fill="#f3d9fa"></path><path d="M11.25 0 C83.05 0, 154.85 0, 298.75 0 M11.25 0 C86.39 0, 161.53 0, 298.75 0 M298.75 0 C306.25 0, 310 3.75, 310 11.25 M298.75 0 C306.25 0, 310 3.75, 310 11.25 M310 11.25 C310 18.69, 310 26.13, 310 33.75 M310 11.25 C310 19.89, 310 28.53, 310 33.75 M310 33.75 C310 41.25, 306.25 45, 298.75 45 M310 33.75 C310 41.25, 306.25 45, 298.75 45 M298.75 45 C219.82 45, 140.88 45, 11.25 45 M298.75 45 C222.32 45, 145.88 45, 11.25 45 M11.25 45 C3.75 45, 0 41.25, 0 33.75 M11.25 45 C3.75 45, 0 41.25, 0 33.75 M0 33.75 C0 29.16, 0 24.56, 0 11.25 M0 33.75 C0 26.47, 0 19.19, 0 11.25 M0 11.25 C0 3.75, 3.75 0, 11.25 0 M0 11.25 C0 3.75, 3.75 0, 11.25 0" stroke="#9c36b5" stroke-width="2" fill="none"></path></g><g transform="translate(380 242) rotate(0 145 15)"><text x="145" y="0" font-family="Segoe UI Emoji" font-size="14px" fill="#9c36b5" text-anchor="middle" style="white-space: pre;" direction="ltr" dominant-baseline="text-before-edge">🔷 remote_query() → Neo4j</text></g><g transform="translate(690 245) rotate(0 85 12.5)"><text x="0" y="0" font-family="Segoe UI Emoji" font-size="12px" fill="#9c36b5" text-anchor="start" style="white-space: pre;" direction="ltr" dominant-baseline="text-before-edge">COUNT Flight→Airport</text></g><g stroke-linecap="round" transform="translate(370 295) rotate(0 155 22.5)"><path d="M11.25 0 C82.47 0, 153.7 0, 298.75 0 C306.25 0, 310 3.75, 310 11.25 C310 16.96, 310 22.66, 310 33.75 C310 41.25, 306.25 45, 298.75 45 C192.7 45, 86.64 45, 11.25 45 C3.75 45, 0 41.25, 0 33.75 C0 28.85, 0 23.96, 0 11.25 C0 3.75, 3.75 0, 11.25 0" stroke="none" stroke-width="0" fill="#dbe4ff"></path><path d="M11.25 0 C83.06 0, 154.88 0, 298.75 0 M11.25 0 C120.87 0, 230.49 0, 298.75 0 M298.75 0 C306.25 0, 310 3.75, 310 11.25 M298.75 0 C306.25 0, 310 3.75, 310 11.25 M310 11.25 C310 18.13, 310 25.01, 310 33.75 M310 11.25 C310 17.53, 310 23.81, 310 33.75 M310 33.75 C310 41.25, 306.25 45, 298.75 45 M310 33.75 C310 41.25, 306.25 45, 298.75 45 M298.75 45 C232.26 45, 165.77 45, 11.25 45 M298.75 45 C234.33 45, 169.91 45, 11.25 45 M11.25 45 C3.75 45, 0 41.25, 0 33.75 M11.25 45 C3.75 45, 0 41.25, 0 33.75 M0 33.75 C0 27.62, 0 21.5, 0 11.25 M0 33.75 C0 27.28, 0 20.8, 0 11.25 M0 11.25 C0 3.75, 3.75 0, 11.25 0 M0 11.25 C0 3.75, 3.75 0, 11.25 0" stroke="#1971c2" stroke-width="2" fill="none"></path></g><g transform="translate(380 302) rotate(0 145 15)"><text x="145" y="0" font-family="Segoe UI Emoji" font-size="14px" fill="#1971c2" text-anchor="middle" style="white-space: pre;" direction="ltr" dominant-baseline="text-before-edge">💾 Delta SQL</text></g><g transform="translate(690 305) rotate(0 115 12.5)"><text x="0" y="0" font-family="Segoe UI Emoji" font-size="12px" fill="#1971c2" text-anchor="start" style="white-space: pre;" direction="ltr" dominant-baseline="text-before-edge">sensor_readings + sensors (agg)</text></g><g stroke-linecap="round"><g transform="translate(170 182) rotate(0 99 -52.5)"><path d="M0 0 C16.5 -8.67, 66 -34.5, 99 -52 C132 -69.5, 181.5 -96.17, 198 -105 M0 0 C16.5 -8.67, 66 -34.5, 99 -52 C132 -69.5, 181.5 -96.17, 198 -105" stroke="#9c36b5" stroke-width="2" fill="none"></path></g><g transform="translate(170 182) rotate(0 99 -52.5)"><path d="M178.01 -82.63 C183.99 -89.32, 189.97 -96.01, 198 -105 M178.01 -82.63 C182.71 -87.89, 187.42 -93.15, 198 -105" stroke="#9c36b5" stroke-width="2" fill="none"></path></g><g transform="translate(170 182) rotate(0 99 -52.5)"><path d="M168.31 -100.71 C177.19 -101.99, 186.07 -103.28, 198 -105 M168.31 -100.71 C175.29 -101.72, 182.27 -102.73, 198 -105" stroke="#9c36b5" stroke-width="2" fill="none"></path></g></g><mask></mask><g stroke-linecap="round"><g transform="translate(170 190) rotate(0 99 -26.5)"><path d="M0 0 C16.5 -4.33, 66 -17.17, 99 -26 C132 -34.83, 181.5 -48.5, 198 -53 M0 0 C16.5 -4.33, 66 -17.17, 99 -26 C132 -34.83, 181.5 -48.5, 198 -53" stroke="#9c36b5" stroke-width="2" fill="none"></path></g><g transform="translate(170 190) rotate(0 99 -26.5)"><path d="M173.52 -35.65 C180.85 -40.84, 188.17 -46.03, 198 -53 M173.52 -35.65 C181.04 -40.98, 188.56 -46.31, 198 -53" stroke="#9c36b5" stroke-width="2" fill="none"></path></g><g transform="translate(170 190) rotate(0 99 -26.5)"><path d="M168.1 -55.44 C177.04 -54.71, 185.99 -53.98, 198 -53 M168.1 -55.44 C177.28 -54.69, 186.47 -53.94, 198 -53" stroke="#9c36b5" stroke-width="2" fill="none"></path></g></g><mask></mask><g stroke-linecap="round"><g transform="translate(170 197) rotate(0 99 0)"><path d="M0 0 C16.5 0, 66 0, 99 0 C132 0, 181.5 0, 198 0 M0 0 C16.5 0, 66 0, 99 0 C132 0, 181.5 0, 198 0" stroke="#9c36b5" stroke-width="2" fill="none"></path></g><g transform="translate(170 197) rotate(0 99 0)"><path d="M169.81 10.26 C178.24 7.19, 186.67 4.12, 198 0 M169.81 10.26 C180.5 6.37, 191.19 2.48, 198 0" stroke="#9c36b5" stroke-width="2" fill="none"></path></g><g transform="translate(170 197) rotate(0 99 0)"><path d="M169.81 -10.26 C178.24 -7.19, 186.67 -4.12, 198 0 M169.81 -10.26 C180.5 -6.37, 191.19 -2.48, 198 0" stroke="#9c36b5" stroke-width="2" fill="none"></path></g></g><mask></mask><g stroke-linecap="round"><g transform="translate(170 205) rotate(0 99 26)"><path d="M0 0 C16.5 4.33, 66 17.33, 99 26 C132 34.67, 181.5 47.67, 198 52 M0 0 C16.5 4.33, 66 17.33, 99 26 C132 34.67, 181.5 47.67, 198 52" stroke="#9c36b5" stroke-width="2" fill="none"></path></g><g transform="translate(170 205) rotate(0 99 26)"><path d="M168.13 54.76 C177.06 53.94, 186 53.11, 198 52 M168.13 54.76 C175.63 54.07, 183.13 53.38, 198 52" stroke="#9c36b5" stroke-width="2" fill="none"></path></g><g transform="translate(170 205) rotate(0 99 26)"><path d="M173.34 34.92 C180.72 40.03, 188.09 45.14, 198 52 M173.34 34.92 C179.53 39.21, 185.73 43.5, 198 52" stroke="#9c36b5" stroke-width="2" fill="none"></path></g></g><mask></mask><g stroke-linecap="round"><g transform="translate(170 215) rotate(0 99 51)"><path d="M0 0 C16.5 8.5, 66 34, 99 51 C132 68, 181.5 93.5, 198 102 M0 0 C16.5 8.5, 66 34, 99 51 C132 68, 181.5 93.5, 198 102" stroke="#1971c2" stroke-width="2" fill="none"></path></g><g transform="translate(170 215) rotate(0 99 51)"><path d="M168.24 98.21 C177.14 99.34, 186.04 100.48, 198 102 M168.24 98.21 C177.86 99.44, 187.48 100.66, 198 102" stroke="#1971c2" stroke-width="2" fill="none"></path></g><g transform="translate(170 215) rotate(0 99 51)"><path d="M177.64 79.97 C183.73 86.56, 189.82 93.15, 198 102 M177.64 79.97 C184.22 87.09, 190.8 94.21, 198 102" stroke="#1971c2" stroke-width="2" fill="none"></path></g></g><mask></mask></svg>