<svg version="1.1" xmlns="http://www.w3.org/2000/svg" viewBox="0 0 930 355" width="930" height="355">
  <!-- svg-source:excalidraw -->
  
  <defs>
    <style class="style-fonts">
      @font-face {
        font-family: "Virgil";
        src: url("https://unpkg.com/@excalidraw/excalidraw@undefined/dist/excalidraw-assets/Virgil.woff2");
      }
      @font-face {
        font-family: "Cascadia";
        src: url("https://unpkg.com/@excalidraw/excalidraw@undefined/dist/excalidraw-assets/Cascadia.woff2");
      }
      @font-face {
        font-family: "Assistant";
        src: url("https://unpkg.com/@excalidraw/excalidraw@undefined/dist/excalidraw-assets/Assistant-Regular.woff2");
      }
    </style>
    
  </defs>
  <rect x="0" y="0" width="930" height="355" fill="#ffffff"></rect><g transform="translate(190 10) rotate(0 160 15)"><text x="160" y="0" font-family="Segoe UI Emoji" font-size="24px" fill="#1e1e1e" text-anchor="middle" style="white-space: pre;" direction="ltr" dominant-baseline="text-before-edge">Fleet Summary — Data Flow</text></g><g stroke-linecap="round" transform="translate(10 155) rotate(0 80 35)"><path d="M17.5 0 C51.06 0, 84.62 0, 142.5 0 C154.17 0, 160 5.83, 160 17.5 C160 28.39, 160 39.28, 160 52.5 C160 64.17, 154.17 70, 142.5 70 C100.85 70, 59.2 70, 17.5 70 C5.83 70, 0 64.17, 0 52.5 C0 42.04, 0 31.58, 0 17.5 C0 5.83, 5.83 0, 17.5 0" stroke="none" stroke-width="0" fill="#ffec99"></path><path d="M17.5 0 C48.7 0, 79.89 0, 142.5 0 M17.5 0 C49.2 0, 80.9 0, 142.5 0 M142.5 0 C154.17 0, 160 5.83, 160 17.5 M142.5 0 C154.17 0, 160 5.83, 160 17.5 M160 17.5 C160 26.18, 160 34.87, 160 52.5 M160 17.5 C160 31.24, 160 44.98, 160 52.5 M160 52.5 C160 64.17, 154.17 70, 142.5 70 M160 52.5 C160 64.17, 154.17 70, 142.5 70 M142.5 70 C109.58 70, 76.67 70, 17.5 70 M142.5 70 C111.39 70, 80.28 70, 17.5 70 M17.5 70 C5.83 70, 0 64.17, 0 52.5 M17.5 70 C5.83 70, 0 64.17, 0 52.5 M0 52.5 C0 44.85, 0 37.2, 0 17.5 M0 52.5 C0 40.49, 0 28.47, 0 17.5 M0 17.5 C0 5.83, 5.83 0, 17.5 0 M0 17.5 C0 5.83, 5.83 0, 17.5 0" stroke="#495057" stroke-width="2" fill="none"></path></g><g transform="translate(20 163) rotate(0 70 25)"><text x="70" y="0" font-family="Segoe UI Emoji" font-size="18px" fill="#495057" text-anchor="middle" style="white-space: pre;" direction="ltr" dominant-baseline="text-before-edge">Spark SQL</text><text x="70" y="22.5" font-family="Segoe UI Emoji" font-size="18px" fill="#495057" text-anchor="middle" style="white-space: pre;" direction="ltr" dominant-baseline="text-before-edge">CROSS JOIN</text></g><g stroke-linecap="round" transform="translate(370 55) rotate(0 155 22.5)"><path d="M11.25 0 C82.65 0, 154.05 0, 298.75 0 C306.25 0, 310 3.75, 310 11.25 C310 16.63, 310 22.02, 310 33.75 C310 41.25, 306.25 45, 298.75 45 C197.55 45, 96.35 45, 11.25 45 C3.75 45, 0 41.25, 0 33.75 C0 27.27, 0 20.79, 0 11.25 C0 3.75, 3.75 0, 11.25 0" stroke="none" stroke-width="0" fill="#f3d9fa"></path><path d="M11.25 0 C83.01 0, 154.77 0, 298.75 0 M11.25 0 C97.94 0, 184.63 0, 298.75 0 M298.75 0 C306.25 0, 310 3.75, 310 11.25 M298.75 0 C306.25 0, 310 3.75, 310 11.25 M310 11.25 C310 15.88, 310 20.5, 310 33.75 M310 11.25 C310 17.96, 310 24.67, 310 33.75 M310 33.75 C310 41.25, 306.25 45, 298.75 45 M310 33.75 C310 41.25, 306.25 45, 298.75 45 M298.75 45 C239.99 45, 181.23 45, 11.25 45 M298.75 45 C186.27 45, 73.78 45, 11.25 45 M11.25 45 C3.75 45, 0 41.25, 0 33.75 M11.25 45 C3.75 45, 0 41.25, 0 33.75 M0 33.75 C0 24.75, 0 15.76, 0 11.25 M0 33.75 C0 28.55, 0 23.35, 0 11.25 M0 11.25 C0 3.75, 3.75 0, 11.25 0 M0 11.25 C0 3.75, 3.75 0, 11.25 0" stroke="#9c36b5" stroke-width="2" fill="none"></path></g><g transform="translate(380 62) rotate(0 145 15)"><text x="145" y="0" font-family="Segoe UI Emoji" font-size="14px" fill="#9c36b5" text-anchor="middle" style="white-space: pre;" direction="ltr" dominant-baseline="text-before-edge">🔷 remote_query() → Neo4j</text></g><g transform="translate(690 63) rotate(0 90 12.5)"><text x="0" y="0" font-family="Segoe UI Emoji" font-size="12px" fill="#9c36b5" text-anchor="start" style="white-space: pre;" direction="ltr" dominant-baseline="text-before-edge">COUNT MaintenanceEvent</text></g><g stroke-linecap="round" transform="translate(370 115) rotate(0 155 22.5)"><path d="M11.25 0 C82.61 0, 153.97 0, 298.75 0 C306.25 0, 310 3.75, 310 11.25 C310 17.84, 310 24.43, 310 33.75 C310 41.25, 306.25 45, 298.75 45 C210.71 45, 122.67 45, 11.25 45 C3.75 45, 0 41.25, 0 33.75 C0 26.54, 0 19.33, 0 11.25 C0 3.75, 3.75 0, 11.25 0" stroke="none" stroke-width="0" fill="#f3d9fa"></path><path d="M11.25 0 C83.02 0, 154.8 0, 298.75 0 M11.25 0 C74.92 0, 138.6 0, 298.75 0 M298.75 0 C306.25 0, 310 3.75, 310 11.25 M298.75 0 C306.25 0, 310 3.75, 310 11.25 M310 11.25 C310 19.82, 310 28.38, 310 33.75 M310 11.25 C310 20.1, 310 28.96, 310 33.75 M310 33.75 C310 41.25, 306.25 45, 298.75 45 M310 33.75 C310 41.25, 306.25 45, 298.75 45 M298.75 45 C194.93 45, 91.12 45, 11.25 45 M298.75 45 C198.28 45, 97.81 45, 11.25 45 M11.25 45 C3.75 45, 0 41.25, 0 33.75 M11.25 45 C3.75 45, 0 41.25, 0 33.75 M0 33.75 C0 27.72, 0 21.69, 0 11.25 M0 33.75 C0 24.86, 0 15.97, 0 11.25 M0 11.25 C0 3.75, 3.75 0, 11.25 0 M0 11.25 C0 3.75, 3.75 0, 11.25 0" stroke="#9c36b5" stroke-width="2" fill="none"></path></g><g transform="translate(380 122) rotate(0 145 15)"><text x="145" y="0" font-family="Segoe UI Emoji" font-size="14px" fill="#9c36b5" text-anchor="middle" style="white-space: pre;" direction="ltr" dominant-baseline="text-before-edge">🔷 remote_query() → Neo4j</text></g><g transform="translate(690 123) rotate(0 80 12.5)"><text x="0" y="0" font-family="Segoe UI Emoji" font-size="12px" fill="#9c36b5" text-anchor="start" style="white-space: pre;" direction="ltr" dominant-baseline="text-before-edge">COUNT critical events</text></g><g stroke-linecap="round" transform="translate(370 175) rotate(0 155 22.5)"><path d="M11.25 0 C82.56 0, 153.88 0, 298.75 0 C306.25 0, 310 3.75, 310 11.25 C310 19.05, 310 26.84, 310 33.75 C310 41.25, 306.25 45, 298.75 45 C223.87 45, 148.99 45, 11.25 45 C3.75 45, 0 41.25, 0 33.75 C0 25.81, 0 17.87, 0 11.25 C0 3.75, 3.75 0, 11.25 0" stroke="none" stroke-width="0" fill="#f3d9fa"></path><path d="M11.25 0 C83.04 0, 154.82 0, 298.75 0 M11.25 0 C109.41 0, 207.56 0, 298.75 0 M298.75 0 C306.25 0, 310 3.75, 310 11.25 M298.75 0 C306.25 0, 310 3.75, 310 11.25 M310 11.25 C310 19.25, 310 27.26, 310 33.75 M310 11.25 C310 17.75, 310 24.24, 310 33.75 M310 33.75 C310 41.25, 306.25 45, 298.75 45 M310 33.75 C310 41.25, 306.25 45, 298.75 45 M298.75 45 C207.38 45, 116 45, 11.25 45 M298.75 45 C210.3 45, 121.85 45, 11.25 45 M11.25 45 C3.75 45, 0 41.25, 0 33.75 M11.25 45 C3.75 45, 0 41.25, 0 33.75 M0 33.75 C0 26.19, 0 18.63, 0 11.25 M0 33.75 C0 25.66, 0 17.58, 0 11.25 M0 11.25 C0 3.75, 3.75 0, 11.25 0 M0 11.25 C0 3.75, 3.75 0, 11.25 0" stroke="#9c36b5" stroke-width="2" fill="none"></path></g><g transform="translate(380 182) rotate(0 145 15)"><text x="145" y="0" font-family="Segoe UI Emoji" font-size="14px" fill="#9c36b5" text-anchor="middle" style="white-space: pre;" direction="ltr" dominant-baseline="text-before-edge">🔷 remote_query() → Neo4j</text></g><g transform="translate(690 183) rotate(0 50 12.5)"><text x="0" y="0" font-family="Segoe UI Emoji" font-size="12px" fill="#9c36b5" text-anchor="start" style="white-space: pre;" direction="ltr" dominant-baseline="text-before-edge">COUNT Flight</text></g><g stroke-linecap="round" transform="translate(370 235) rotate(0 155 22.5)"><path d="M11.25 0 C82.52 0, 153.79 0, 298.75 0 C306.25 0, 310 3.75, 310 11.25 C310 15.75, 310 20.25, 310 33.75 C310 41.25, 306.25 45, 298.75 45 C237.03 45, 175.32 45, 11.25 45 C3.75 45, 0 41.25, 0 33.75 C0 25.08, 0 16.41, 0 11.25 C0 3.75, 3.75 0, 11.25 0" stroke="none" stroke-width="0" fill="#f3d9fa"></path><path d="M11.25 0 C83.05 0, 154.85 0, 298.75 0 M11.25 0 C86.39 0, 161.53 0, 298.75 0 M298.75 0 C306.25 0, 310 3.75, 310 11.25 M298.75 0 C306.25 0, 310 3.75, 310 11.25 M310 11.25 C310 18.69, 310 26.13, 310 33.75 M310 11.25 C310 19.89, 310 28.53, 310 33.75 M310 33.75 C310 41.25, 306.25 45, 298.75 45 M310 33.75 C310 41.25, 306.25 45, 298.75 45 M298.75 45 C219.82 45, 140.88 45, 11.25 45 M298.75 45 C222.32 45, 145.88 45, 11.25 45 M11.25 45 C3.75 45, 0 41.25, 0 33.75 M11.25 45 C3.75 45, 0 41.25, 0 33.75 M0 33.75 C0 29.16, 0 24.56, 0 11.25 M0 33.75 C0 26.47, 0 19.19, 0 11.25 M0 11.25 C0 3.75, 3.75 0, 11.25 0 M0 11.25 C0 3.75, 3.75 0, 11.25 0" stroke="#9c36b5" stroke-width="2" fill="none"></path></g><g transform="translate(380 242) rotate(0 145 15)"><text x="145" y="0" font-family="Segoe UI Emoji" font-size="14px" fill="#9c36b5" text-anchor="middle" style="white-space: pre;" direction="ltr" dominant-baseline="text-before-edge">🔷 remote_query() → Neo4j</text></g><g transform="translate(690 243) rotate(0 85 12.5)"><text x="0" y="0" font-family="Segoe UI Emoji" font-size="12px" fill="#9c36b5" text-anchor="start" style="white-space: pre;" direction="ltr" dominant-baseline="text-before-edge">COUNT Flight→Airport</text></g><g stroke-linecap="round" transform="translate(370 300) rotate(0 155 22.5)"><path d="M11.25 0 C82.47 0, 153.7 0, 298.75 0 C306.25 0, 310 3.75, 310 11.25 C310 16.96, 310 22.66, 310 33.75 C310 41.25, 306.25 45, 298.75 45 C192.7 45, 86.64 45, 11.25 45 C3.75 45, 0 41.25, 0 33.75 C0 28.85, 0 23.96, 0 11.25 C0 3.75, 3.75 0, 11.25 0" stroke="none" stroke-width="0" fill="#dbe4ff"></path><path d="M11.25 0 C83.06 0, 154.88 0, 298.75 0 M11.25 0 C120.87 0, 230.49 0, 298.75 0 M298.75 0 C306.25 0, 310 3.75, 310 11.25 M298.75 0 C306.25 0, 310 3.75, 310 11.25 M310 11.25 C310 18.13, 310 25.01, 310 33.75 M310 11.25 C310 17.53, 310 23.81, 310 33.75 M310 33.75 C310 41.25, 306.25 45, 298.75 45 M310 33.75 C310 41.25, 306.25 45, 298.75 45 M298.75 45 C232.26 45, 165.77 45, 11.25 45 M298.75 45 C234.33 45, 169.91 45, 11.25 45 M11.25 45 C3.75 45, 0 41.25, 0 33.75 M11.25 45 C3.75 45, 0 41.25, 0 33.75 M0 33.75 C0 27.62, 0 21.5, 0 11.25 M0 33.75 C0 27.28, 0 20.8, 0 11.25 M0 11.25 C0 3.75, 3.75 0, 11.25 0 M0 11.25 C0 3.75, 3.75 0, 11.25 0" stroke="#1971c2" stroke-width="2" fill="none"></path></g><g transform="translate(380 307) rotate(0 145 15)"><text x="145" y="0" font-family="Segoe UI Emoji" font-size="14px" fill="#1971c2" text-anchor="middle" style="white-space: pre;" direction="ltr" dominant-baseline="text-before-edge">💾 Delta SQL</text></g><g transform="translate(690 308) rotate(0 115 12.5)"><text x="0" y="0" font-family="Segoe UI Emoji" font-size="12px" fill="#1971c2" text-anchor="start" style="white-space: pre;" direction="ltr" dominant-baseline="text-before-edge">sensor_readings + sensors (agg)</text></g><g stroke-linecap="round"><g transform="translate(170 175) rotate(0 99 -50)"><path d="M0 0 C16.5 -8.33, 66 -33.33, 99 -50 C132 -66.67, 181.5 -91.67, 198 -100 M0 0 C16.5 -8.33, 66 -33.33, 99 -50 C132 -66.67, 181.5 -91.67, 198 -100" stroke="#9c36b5" stroke-width="2" fill="none"></path></g><g transform="translate(170 175) rotate(0 99 -50)"><path d="M177.46 -78.13 C183.61 -84.67, 189.75 -91.21, 198 -100 M177.46 -78.13 C182.29 -83.28, 187.12 -88.42, 198 -100" stroke="#9c36b5" stroke-width="2" fill="none"></path></g><g transform="translate(170 175) rotate(0 99 -50)"><path d="M168.21 -96.45 C177.12 -97.51, 186.03 -98.57, 198 -100 M168.21 -96.45 C175.22 -97.28, 182.22 -98.12, 198 -100" stroke="#9c36b5" stroke-width="2" fill="none"></path></g></g><mask></mask><g stroke-linecap="round"><g transform="translate(170 185) rotate(0 99 -24)"><path d="M0 0 C16.5 -4, 66 -16, 99 -24 C132 -32, 181.5 -44, 198 -48 M0 0 C16.5 -4, 66 -16, 99 -24 C132 -32, 181.5 -44, 198 -48" stroke="#9c36b5" stroke-width="2" fill="none"></path></g><g transform="translate(170 185) rotate(0 99 -24)"><path d="M173.02 -31.39 C180.49 -36.36, 187.96 -41.33, 198 -48 M173.02 -31.39 C180.69 -36.49, 188.37 -41.59, 198 -48" stroke="#9c36b5" stroke-width="2" fill="none"></path></g><g transform="translate(170 185) rotate(0 99 -24)"><path d="M168.19 -51.33 C177.1 -50.33, 186.02 -49.34, 198 -48 M168.19 -51.33 C177.34 -50.31, 186.5 -49.28, 198 -48" stroke="#9c36b5" stroke-width="2" fill="none"></path></g></g><mask></mask><g stroke-linecap="round"><g transform="translate(170 192) rotate(0 99 2.5)"><path d="M0 0 C16.5 0.33, 66 1.17, 99 2 C132 2.83, 181.5 4.5, 198 5 M0 0 C16.5 0.33, 66 1.17, 99 2 C132 2.83, 181.5 4.5, 198 5" stroke="#9c36b5" stroke-width="2" fill="none"></path></g><g transform="translate(170 192) rotate(0 99 2.5)"><path d="M169.5 14.36 C178.02 11.56, 186.55 8.76, 198 5 M169.5 14.36 C180.31 10.81, 191.11 7.26, 198 5" stroke="#9c36b5" stroke-width="2" fill="none"></path></g><g transform="translate(170 192) rotate(0 99 2.5)"><path d="M170.15 -6.15 C178.48 -2.81, 186.81 0.52, 198 5 M170.15 -6.15 C180.71 -1.92, 191.27 2.31, 198 5" stroke="#9c36b5" stroke-width="2" fill="none"></path></g></g><mask></mask><g stroke-linecap="round"><g transform="translate(170 200) rotate(0 99 28.5)"><path d="M0 0 C16.5 4.67, 66 18.5, 99 28 C132 37.5, 181.5 52.17, 198 57 M0 0 C16.5 4.67, 66 18.5, 99 28 C132 37.5, 181.5 52.17, 198 57" stroke="#9c36b5" stroke-width="2" fill="none"></path></g><g transform="translate(170 200) rotate(0 99 28.5)"><path d="M168.06 58.88 C177.02 58.32, 185.97 57.76, 198 57 M168.06 58.88 C175.58 58.41, 183.1 57.94, 198 57" stroke="#9c36b5" stroke-width="2" fill="none"></path></g><g transform="translate(170 200) rotate(0 99 28.5)"><path d="M173.85 39.2 C181.08 44.52, 188.3 49.85, 198 57 M173.85 39.2 C179.92 43.67, 185.98 48.14, 198 57" stroke="#9c36b5" stroke-width="2" fill="none"></path></g></g><mask></mask><g stroke-linecap="round"><g transform="translate(170 210) rotate(0 99 56)"><path d="M0 0 C16.5 9.33, 66 37.33, 99 56 C132 74.67, 181.5 102.67, 198 112 M0 0 C16.5 9.33, 66 37.33, 99 56 C132 74.67, 181.5 102.67, 198 112" stroke="#1971c2" stroke-width="2" fill="none"></path></g><g transform="translate(170 210) rotate(0 99 56)"><path d="M168.41 107.05 C177.26 108.53, 186.11 110.01, 198 112 M168.41 107.05 C177.97 108.65, 187.54 110.25, 198 112" stroke="#1971c2" stroke-width="2" fill="none"></path></g><g transform="translate(170 210) rotate(0 99 56)"><path d="M178.51 89.19 C184.34 96.01, 190.17 102.84, 198 112 M178.51 89.19 C184.81 96.56, 191.11 103.93, 198 112" stroke="#1971c2" stroke-width="2" fill="none"></path></g></g><mask></mask></svg>