<svg version="1.1" xmlns="http://www.w3.org/2000/svg" viewBox="0 0 700 324" width="700" height="324">
  <!-- svg-source:excalidraw -->
  
  <defs>
    <style class="style-fonts">
      @font-face {
        font-family: "Virgil";
        src: url("https://unpkg.com/@excalidraw/excalidraw@undefined/dist/excalidraw-assets/Virgil.woff2");
      }
      @font-face {
        font-family: "Cascadia";
        src: url("https://unpkg.com/@excalidraw/excalidraw@undefined/dist/excalidraw-assets/Cascadia.woff2");
      }
      @font-face {
        font-family: "Assistant";
        src: url("https://unpkg.com/@excalidraw/excalidraw@undefined/dist/excalidraw-assets/Assistant-Regular.woff2");
      }
    </style>
    
  </defs>
  <rect x="0" y="0" width="700" height="324" fill="#ffffff"></rect><g transform="translate(140 10) rotate(0 225 15)"><text x="225" y="0" font-family="Segoe UI Emoji" font-size="24px" fill="#1e1e1e" text-anchor="middle" style="white-space: pre;" direction="ltr" dominant-baseline="text-before-edge">Sensor Health + Maintenance Correlation</text></g><g stroke-linecap="round" transform="translate(10 60) rotate(0 60 25)"><path d="M12.5 0 C39.91 0, 67.31 0, 107.5 0 C115.83 0, 120 4.17, 120 12.5 C120 18.41, 120 24.32, 120 37.5 C120 45.83, 115.83 50, 107.5 50 C81.98 50, 56.46 50, 12.5 50 C4.17 50, 0 45.83, 0 37.5 C0 28.95, 0 20.39, 0 12.5 C0 4.17, 4.17 0, 12.5 0" stroke="none" stroke-width="0" fill="#f3d9fa"></path><path d="M12.5 0 C36.21 0, 59.92 0, 107.5 0 M12.5 0 C43.43 0, 74.36 0, 107.5 0 M107.5 0 C115.83 0, 120 4.17, 120 12.5 M107.5 0 C115.83 0, 120 4.17, 120 12.5 M120 12.5 C120 19.14, 120 25.78, 120 37.5 M120 12.5 C120 22.05, 120 31.61, 120 37.5 M120 37.5 C120 45.83, 115.83 50, 107.5 50 M120 37.5 C120 45.83, 115.83 50, 107.5 50 M107.5 50 C81 50, 54.49 50, 12.5 50 M107.5 50 C82.35 50, 57.21 50, 12.5 50 M12.5 50 C4.17 50, 0 45.83, 0 37.5 M12.5 50 C4.17 50, 0 45.83, 0 37.5 M0 37.5 C0 29.87, 0 22.23, 0 12.5 M0 37.5 C0 32.01, 0 26.52, 0 12.5 M0 12.5 C0 4.17, 4.17 0, 12.5 0 M0 12.5 C0 4.17, 4.17 0, 12.5 0" stroke="#9c36b5" stroke-width="2" fill="none"></path></g><g transform="translate(20 72) rotate(0 50 13)"><text x="50" y="0" font-family="Segoe UI Emoji" font-size="16px" fill="#9c36b5" text-anchor="middle" style="white-space: pre;" direction="ltr" dominant-baseline="text-before-edge">Neo4j</text></g><g mask="url(#mask-arrow_neo4j_to_spark)" stroke-linecap="round"><g transform="translate(130 85) rotate(0 60 0)"><path d="M0 0 C20 0, 100 0, 120 0" stroke="#9c36b5" stroke-width="2.5" fill="none" stroke-dasharray="8 10"></path></g><g transform="translate(130 85) rotate(0 60 0)"><path d="M91.81 10.26 C98.84 7.7, 105.88 5.14, 120 0" stroke="#9c36b5" stroke-width="2.5" fill="none"></path></g><g transform="translate(130 85) rotate(0 60 0)"><path d="M91.81 -10.26 C98.84 -7.7, 105.88 -5.14, 120 0" stroke="#9c36b5" stroke-width="2.5" fill="none"></path></g></g><mask id="mask-arrow_neo4j_to_spark"><rect x="0" y="0" fill="#fff" width="350" height="185"></rect><rect x="145" y="75" fill="#000" width="90" height="20" opacity="1"></rect></mask><g transform="translate(145 75) rotate(0 45 10)"><text x="45" y="0" font-family="Segoe UI Emoji" font-size="12px" fill="#9c36b5" text-anchor="middle" style="white-space: pre;" direction="ltr" dominant-baseline="text-before-edge">Spark Connector</text></g><g stroke-linecap="round" transform="translate(250 55) rotate(0 100 30)"><path d="M15 0 C77.63 0, 140.26 0, 185 0 C195 0, 200 5, 200 15 C200 25.14, 200 35.27, 200 45 C200 55, 195 60, 185 60 C149.25 60, 113.49 60, 15 60 C5 60, 0 55, 0 45 C0 35.55, 0 26.1, 0 15 C0 5, 5 0, 15 0" stroke="none" stroke-width="0" fill="#c5f6fa"></path><path d="M15 0 C57.43 0, 99.86 0, 185 0 M15 0 C51.31 0, 87.61 0, 185 0 M185 0 C195 0, 200 5, 200 15 M185 0 C195 0, 200 5, 200 15 M200 15 C200 25.07, 200 35.14, 200 45 M200 15 C200 25.21, 200 35.41, 200 45 M200 45 C200 55, 195 60, 185 60 M200 45 C200 55, 195 60, 185 60 M185 60 C126.91 60, 68.83 60, 15 60 M185 60 C129.25 60, 73.49 60, 15 60 M15 60 C5 60, 0 55, 0 45 M15 60 C5 60, 0 55, 0 45 M0 45 C0 37.42, 0 29.84, 0 15 M0 45 C0 35.24, 0 25.48, 0 15 M0 15 C0 5, 5 0, 15 0 M0 15 C0 5, 5 0, 15 0" stroke="#1098ad" stroke-width="2" fill="none"></path></g><g transform="translate(260 65) rotate(0 90 20)"><text x="90" y="0" font-family="Segoe UI Emoji" font-size="14px" fill="#1098ad" text-anchor="middle" style="white-space: pre;" direction="ltr" dominant-baseline="text-before-edge">neo4j_maintenance</text><text x="90" y="17.5" font-family="Segoe UI Emoji" font-size="14px" fill="#1098ad" text-anchor="middle" style="white-space: pre;" direction="ltr" dominant-baseline="text-before-edge">temp view</text></g><g stroke-linecap="round"><g transform="translate(350 115) rotate(0 0 37.5)"><path d="M0 0 C0 12.5, 0 62.5, 0 75 M0 0 C0 12.5, 0 62.5, 0 75" stroke="#495057" stroke-width="2" fill="none"></path></g><g transform="translate(350 115) rotate(0 0 37.5)"><path d="M-10.26 46.81 C-7.7 53.85, -5.14 60.88, 0 75 M-10.26 46.81 C-6.59 56.89, -2.92 66.97, 0 75" stroke="#495057" stroke-width="2" fill="none"></path></g><g transform="translate(350 115) rotate(0 0 37.5)"><path d="M10.26 46.81 C7.7 53.85, 5.14 60.88, 0 75 M10.26 46.81 C6.59 56.89, 2.92 66.97, 0 75" stroke="#495057" stroke-width="2" fill="none"></path></g></g><mask></mask><g stroke-linecap="round" transform="translate(10 140) rotate(0 70 18)"><path d="M9 0 C36.86 0, 64.72 0, 131 0 C137 0, 140 3, 140 9 C140 14.65, 140 20.3, 140 27 C140 33, 137 36, 131 36 C104.58 36, 78.15 36, 9 36 C3 36, 0 33, 0 27 C0 22.59, 0 18.19, 0 9 C0 3, 3 0, 9 0" stroke="none" stroke-width="0" fill="#dbe4ff"></path><path d="M9 0 C39.45 0, 69.9 0, 131 0 M9 0 C37 0, 65.01 0, 131 0 M131 0 C137 0, 140 3, 140 9 M131 0 C137 0, 140 3, 140 9 M140 9 C140 15.99, 140 22.97, 140 27 M140 9 C140 14.56, 140 20.12, 140 27 M140 27 C140 33, 137 36, 131 36 M140 27 C140 33, 137 36, 131 36 M131 36 C83.58 36, 36.16 36, 9 36 M131 36 C85.2 36, 39.39 36, 9 36 M9 36 C3 36, 0 33, 0 27 M9 36 C3 36, 0 33, 0 27 M0 27 C0 21.37, 0 15.73, 0 9 M0 27 C0 20.62, 0 14.23, 0 9 M0 9 C0 3, 3 0, 9 0 M0 9 C0 3, 3 0, 9 0" stroke="#1971c2" stroke-width="2" fill="none"></path></g><g transform="translate(20 147) rotate(0 60 11)"><text x="60" y="0" font-family="Segoe UI Emoji" font-size="13px" fill="#1971c2" text-anchor="middle" style="white-space: pre;" direction="ltr" dominant-baseline="text-before-edge">sensor_readings</text></g><g stroke-linecap="round" transform="translate(10 186) rotate(0 70 18)"><path d="M9 0 C41.74 0, 74.48 0, 131 0 C137 0, 140 3, 140 9 C140 15.56, 140 22.13, 140 27 C140 33, 137 36, 131 36 C95.93 36, 60.87 36, 9 36 C3 36, 0 33, 0 27 C0 21.04, 0 15.07, 0 9 C0 3, 3 0, 9 0" stroke="none" stroke-width="0" fill="#dbe4ff"></path><path d="M9 0 C39.45 0, 69.9 0, 131 0 M9 0 C54.57 0, 100.14 0, 131 0 M131 0 C137 0, 140 3, 140 9 M131 0 C137 0, 140 3, 140 9 M140 9 C140 13.02, 140 17.03, 140 27 M140 9 C140 14.18, 140 19.36, 140 27 M140 27 C140 33, 137 36, 131 36 M140 27 C140 33, 137 36, 131 36 M131 36 C104.15 36, 77.31 36, 9 36 M131 36 C105.74 36, 80.47 36, 9 36 M9 36 C3 36, 0 33, 0 27 M9 36 C3 36, 0 33, 0 27 M0 27 C0 21.84, 0 16.68, 0 9 M0 27 C0 21.47, 0 15.93, 0 9 M0 9 C0 3, 3 0, 9 0 M0 9 C0 3, 3 0, 9 0" stroke="#1971c2" stroke-width="2" fill="none"></path></g><g transform="translate(20 193) rotate(0 60 11)"><text x="60" y="0" font-family="Segoe UI Emoji" font-size="13px" fill="#1971c2" text-anchor="middle" style="white-space: pre;" direction="ltr" dominant-baseline="text-before-edge">sensors</text></g><g stroke-linecap="round" transform="translate(10 232) rotate(0 70 18)"><path d="M9 0 C46.61 0, 84.23 0, 131 0 C137 0, 140 3, 140 9 C140 12.88, 140 16.75, 140 27 C140 33, 137 36, 131 36 C87.29 36, 43.58 36, 9 36 C3 36, 0 33, 0 27 C0 23.08, 0 19.16, 0 9 C0 3, 3 0, 9 0" stroke="none" stroke-width="0" fill="#dbe4ff"></path><path d="M9 0 C39.45 0, 69.91 0, 131 0 M9 0 C47.74 0, 86.47 0, 131 0 M131 0 C137 0, 140 3, 140 9 M131 0 C137 0, 140 3, 140 9 M140 9 C140 13.65, 140 18.29, 140 27 M140 9 C140 13.8, 140 18.61, 140 27 M140 27 C140 33, 137 36, 131 36 M140 27 C140 33, 137 36, 131 36 M131 36 C100.33 36, 69.66 36, 9 36 M131 36 C101.88 36, 72.75 36, 9 36 M9 36 C3 36, 0 33, 0 27 M9 36 C3 36, 0 33, 0 27 M0 27 C0 22.31, 0 17.63, 0 9 M0 27 C0 22.32, 0 17.63, 0 9 M0 9 C0 3, 3 0, 9 0 M0 9 C0 3, 3 0, 9 0" stroke="#1971c2" stroke-width="2" fill="none"></path></g><g transform="translate(20 239) rotate(0 60 11)"><text x="60" y="0" font-family="Segoe UI Emoji" font-size="13px" fill="#1971c2" text-anchor="middle" style="white-space: pre;" direction="ltr" dominant-baseline="text-before-edge">systems</text></g><g stroke-linecap="round" transform="translate(10 278) rotate(0 70 18)"><path d="M9 0 C51.49 0, 93.98 0, 131 0 C137 0, 140 3, 140 9 C140 13.79, 140 18.58, 140 27 C140 33, 137 36, 131 36 C103.05 36, 75.1 36, 9 36 C3 36, 0 33, 0 27 C0 21.52, 0 16.05, 0 9 C0 3, 3 0, 9 0" stroke="none" stroke-width="0" fill="#dbe4ff"></path><path d="M9 0 C39.45 0, 69.91 0, 131 0 M9 0 C40.9 0, 72.81 0, 131 0 M131 0 C137 0, 140 3, 140 9 M131 0 C137 0, 140 3, 140 9 M140 9 C140 14.28, 140 19.55, 140 27 M140 9 C140 13.43, 140 17.85, 140 27 M140 27 C140 33, 137 36, 131 36 M140 27 C140 33, 137 36, 131 36 M131 36 C96.51 36, 62.01 36, 9 36 M131 36 C98.02 36, 65.03 36, 9 36 M9 36 C3 36, 0 33, 0 27 M9 36 C3 36, 0 33, 0 27 M0 27 C0 22.79, 0 18.58, 0 9 M0 27 C0 23.16, 0 19.33, 0 9 M0 9 C0 3, 3 0, 9 0 M0 9 C0 3, 3 0, 9 0" stroke="#1971c2" stroke-width="2" fill="none"></path></g><g transform="translate(20 285) rotate(0 60 11)"><text x="60" y="0" font-family="Segoe UI Emoji" font-size="13px" fill="#1971c2" text-anchor="middle" style="white-space: pre;" direction="ltr" dominant-baseline="text-before-edge">aircraft</text></g><g transform="translate(25 122) rotate(0 55 8)"><text x="55" y="0" font-family="Segoe UI Emoji" font-size="11px" fill="#1971c2" text-anchor="middle" style="white-space: pre;" direction="ltr" dominant-baseline="text-before-edge">Delta Tables</text></g><g stroke-linecap="round" transform="translate(175 200) rotate(0 65 27.5)"><path d="M13.75 0 C53.55 0, 93.34 0, 116.25 0 C125.42 0, 130 4.58, 130 13.75 C130 22.46, 130 31.18, 130 41.25 C130 50.42, 125.42 55, 116.25 55 C85.5 55, 54.76 55, 13.75 55 C4.58 55, 0 50.42, 0 41.25 C0 30.51, 0 19.76, 0 13.75 C0 4.58, 4.58 0, 13.75 0" stroke="none" stroke-width="0" fill="#ffec99"></path><path d="M13.75 0 C39.34 0, 64.93 0, 116.25 0 M13.75 0 C34.81 0, 55.88 0, 116.25 0 M116.25 0 C125.42 0, 130 4.58, 130 13.75 M116.25 0 C125.42 0, 130 4.58, 130 13.75 M130 13.75 C130 22.77, 130 31.8, 130 41.25 M130 13.75 C130 19.94, 130 26.12, 130 41.25 M130 41.25 C130 50.42, 125.42 55, 116.25 55 M130 41.25 C130 50.42, 125.42 55, 116.25 55 M116.25 55 C84.06 55, 51.86 55, 13.75 55 M116.25 55 C85.3 55, 54.34 55, 13.75 55 M13.75 55 C4.58 55, 0 50.42, 0 41.25 M13.75 55 C4.58 55, 0 50.42, 0 41.25 M0 41.25 C0 35.54, 0 29.84, 0 13.75 M0 41.25 C0 31.19, 0 21.12, 0 13.75 M0 13.75 C0 4.58, 4.58 0, 13.75 0 M0 13.75 C0 4.58, 4.58 0, 13.75 0" stroke="#495057" stroke-width="2" fill="none"></path></g><g transform="translate(185 208) rotate(0 55 20)"><text x="55" y="0" font-family="Segoe UI Emoji" font-size="13px" fill="#495057" text-anchor="middle" style="white-space: pre;" direction="ltr" dominant-baseline="text-before-edge">GROUP BY</text><text x="55" y="16.25" font-family="Segoe UI Emoji" font-size="13px" fill="#495057" text-anchor="middle" style="white-space: pre;" direction="ltr" dominant-baseline="text-before-edge">aircraft_id</text></g><g stroke-linecap="round"><g transform="translate(150 228) rotate(0 12.5 0)"><path d="M0 0 C4.17 0, 20.83 0, 25 0 M0 0 C4.17 0, 20.83 0, 25 0" stroke="#1971c2" stroke-width="2" fill="none"></path></g><g transform="translate(150 228) rotate(0 12.5 0)"><path d="M13.25 4.28 C16.19 3.21, 19.12 2.14, 25 0 M13.25 4.28 C17.36 2.78, 21.46 1.29, 25 0" stroke="#1971c2" stroke-width="2" fill="none"></path></g><g transform="translate(150 228) rotate(0 12.5 0)"><path d="M13.25 -4.28 C16.19 -3.21, 19.12 -2.14, 25 0 M13.25 -4.28 C17.36 -2.78, 21.46 -1.29, 25 0" stroke="#1971c2" stroke-width="2" fill="none"></path></g></g><mask></mask><g stroke-linecap="round" transform="translate(320 195) rotate(0 80 30)"><path d="M15 0 C47.27 0, 79.53 0, 145 0 C155 0, 160 5, 160 15 C160 23.79, 160 32.57, 160 45 C160 55, 155 60, 145 60 C105.19 60, 65.38 60, 15 60 C5 60, 0 55, 0 45 C0 35.39, 0 25.77, 0 15 C0 5, 5 0, 15 0" stroke="none" stroke-width="0" fill="#ffec99"></path><path d="M15 0 C47.45 0, 79.91 0, 145 0 M15 0 C43.79 0, 72.58 0, 145 0 M145 0 C155 0, 160 5, 160 15 M145 0 C155 0, 160 5, 160 15 M160 15 C160 26.42, 160 37.84, 160 45 M160 15 C160 26.81, 160 38.61, 160 45 M160 45 C160 55, 155 60, 145 60 M160 45 C160 55, 155 60, 145 60 M145 60 C98.06 60, 51.11 60, 15 60 M145 60 C99.57 60, 54.14 60, 15 60 M15 60 C5 60, 0 55, 0 45 M15 60 C5 60, 0 55, 0 45 M0 45 C0 36.96, 0 28.92, 0 15 M0 45 C0 33.14, 0 21.29, 0 15 M0 15 C0 5, 5 0, 15 0 M0 15 C0 5, 5 0, 15 0" stroke="#495057" stroke-width="2" fill="none"></path></g><g transform="translate(330 205) rotate(0 70 20)"><text x="70" y="0" font-family="Segoe UI Emoji" font-size="13px" fill="#495057" text-anchor="middle" style="white-space: pre;" direction="ltr" dominant-baseline="text-before-edge">LEFT JOIN</text><text x="70" y="16.25" font-family="Segoe UI Emoji" font-size="13px" fill="#495057" text-anchor="middle" style="white-space: pre;" direction="ltr" dominant-baseline="text-before-edge">on aircraft_id</text></g><g stroke-linecap="round"><g transform="translate(305 228) rotate(0 7.5 0)"><path d="M0 0 C2.5 0, 12.5 0, 15 0 M0 0 C2.5 0, 12.5 0, 15 0" stroke="#495057" stroke-width="2" fill="none"></path></g><g transform="translate(305 228) rotate(0 7.5 0)"><path d="M7.95 2.57 C9.71 1.92, 11.47 1.28, 15 0 M7.95 2.57 C10.53 1.63, 13.1 0.69, 15 0" stroke="#495057" stroke-width="2" fill="none"></path></g><g transform="translate(305 228) rotate(0 7.5 0)"><path d="M7.95 -2.57 C9.71 -1.92, 11.47 -1.28, 15 0 M7.95 -2.57 C10.53 -1.63, 13.1 -0.69, 15 0" stroke="#495057" stroke-width="2" fill="none"></path></g></g><mask></mask><g stroke-linecap="round" transform="translate(510 200) rotate(0 90 25)"><path d="M12.5 0 C60.26 0, 108.03 0, 167.5 0 C175.83 0, 180 4.17, 180 12.5 C180 19.22, 180 25.95, 180 37.5 C180 45.83, 175.83 50, 167.5 50 C119.06 50, 70.63 50, 12.5 50 C4.17 50, 0 45.83, 0 37.5 C0 31.25, 0 24.99, 0 12.5 C0 4.17, 4.17 0, 12.5 0" stroke="none" stroke-width="0" fill="#d3f9d8"></path><path d="M12.5 0 C51.2 0, 89.9 0, 167.5 0 M12.5 0 C49.31 0, 86.11 0, 167.5 0 M167.5 0 C175.83 0, 180 4.17, 180 12.5 M167.5 0 C175.83 0, 180 4.17, 180 12.5 M180 12.5 C180 18.33, 180 24.16, 180 37.5 M180 12.5 C180 21.55, 180 30.61, 180 37.5 M180 37.5 C180 45.83, 175.83 50, 167.5 50 M180 37.5 C180 45.83, 175.83 50, 167.5 50 M167.5 50 C135.24 50, 102.98 50, 12.5 50 M167.5 50 C105.98 50, 44.46 50, 12.5 50 M12.5 50 C4.17 50, 0 45.83, 0 37.5 M12.5 50 C4.17 50, 0 45.83, 0 37.5 M0 37.5 C0 29.29, 0 21.08, 0 12.5 M0 37.5 C0 31.89, 0 26.28, 0 12.5 M0 12.5 C0 4.17, 4.17 0, 12.5 0 M0 12.5 C0 4.17, 4.17 0, 12.5 0" stroke="#2f9e44" stroke-width="2" fill="none"></path></g><g transform="translate(520 205) rotate(0 80 20)"><text x="80" y="0" font-family="Segoe UI Emoji" font-size="14px" fill="#2f9e44" text-anchor="middle" style="white-space: pre;" direction="ltr" dominant-baseline="text-before-edge">Correlated</text><text x="80" y="17.5" font-family="Segoe UI Emoji" font-size="14px" fill="#2f9e44" text-anchor="middle" style="white-space: pre;" direction="ltr" dominant-baseline="text-before-edge">Result Dataset</text></g><g stroke-linecap="round"><g transform="translate(480 225) rotate(0 15 0)"><path d="M0 0 C5 0, 25 0, 30 0 M0 0 C5 0, 25 0, 30 0" stroke="#2f9e44" stroke-width="2" fill="none"></path></g><g transform="translate(480 225) rotate(0 15 0)"><path d="M15.9 5.13 C19.42 3.85, 22.94 2.57, 30 0 M15.9 5.13 C21.28 3.17, 26.66 1.22, 30 0" stroke="#2f9e44" stroke-width="2" fill="none"></path></g><g transform="translate(480 225) rotate(0 15 0)"><path d="M15.9 -5.13 C19.42 -3.85, 22.94 -2.57, 30 0 M15.9 -5.13 C21.28 -3.17, 26.66 -1.22, 30 0" stroke="#2f9e44" stroke-width="2" fill="none"></path></g></g><mask></mask></svg>