<svg version="1.1" xmlns="http://www.w3.org/2000/svg" viewBox="0 0 770 520" width="770" height="520">
  <!-- svg-source:excalidraw -->
  
  <defs>
    <style class="style-fonts">
      @font-face {
        font-family: "Virgil";
        src: url("https://unpkg.com/@excalidraw/excalidraw@undefined/dist/excalidraw-assets/Virgil.woff2");
      }
      @font-face {
        font-family: "Cascadia";
        src: url("https://unpkg.com/@excalidraw/excalidraw@undefined/dist/excalidraw-assets/Cascadia.woff2");
      }
      @font-face {
        font-family: "Assistant";
        src: url("https://unpkg.com/@excalidraw/excalidraw@undefined/dist/excalidraw-assets/Assistant-Regular.woff2");
      }
    </style>
    
  </defs>
  <rect x="0" y="0" width="770" height="520" fill="#ffffff"></rect><g transform="translate(60 10) rotate(0 350 15)"><text x="350" y="0" font-family="Segoe UI Emoji" font-size="24px" fill="#1e1e1e" text-anchor="middle" style="white-space: pre;" direction="ltr" dominant-baseline="text-before-edge">Federated Lakehouse Architecture</text></g><g stroke-linecap="round" transform="translate(10 50) rotate(0 350 230)"><path d="M32 0 C190.73 0, 349.45 0, 668 0 M32 0 C239.07 0, 446.15 0, 668 0 M668 0 C689.33 0, 700 10.67, 700 32 M668 0 C689.33 0, 700 10.67, 700 32 M700 32 C700 137.19, 700 242.38, 700 428 M700 32 C700 183.33, 700 334.66, 700 428 M700 428 C700 449.33, 689.33 460, 668 460 M700 428 C700 449.33, 689.33 460, 668 460 M668 460 C490.56 460, 313.12 460, 32 460 M668 460 C499.66 460, 331.32 460, 32 460 M32 460 C10.67 460, 0 449.33, 0 428 M32 460 C10.67 460, 0 449.33, 0 428 M0 428 C0 307.07, 0 186.13, 0 32 M0 428 C0 341.01, 0 254.02, 0 32 M0 32 C0 10.67, 10.67 0, 32 0 M0 32 C0 10.67, 10.67 0, 32 0" stroke="#495057" stroke-width="3" fill="none"></path></g><g stroke-linecap="round" transform="translate(10 50) rotate(0 350 30)"><path d="M15 0 C221.67 0, 428.34 0, 685 0 C695 0, 700 5, 700 15 C700 25.86, 700 36.71, 700 45 C700 55, 695 60, 685 60 C548.29 60, 411.57 60, 15 60 C5 60, 0 55, 0 45 C0 33.44, 0 21.88, 0 15 C0 5, 5 0, 15 0" stroke="none" stroke-width="0" fill="#ffec99"></path><path d="M15 0 C182.21 0, 349.43 0, 685 0 M15 0 C281.38 0, 547.76 0, 685 0 M685 0 C695 0, 700 5, 700 15 M685 0 C695 0, 700 5, 700 15 M700 15 C700 23.49, 700 31.99, 700 45 M700 15 C700 26.15, 700 37.3, 700 45 M700 45 C700 55, 695 60, 685 60 M700 45 C700 55, 695 60, 685 60 M685 60 C487.57 60, 290.15 60, 15 60 M685 60 C497.06 60, 309.12 60, 15 60 M15 60 C5 60, 0 55, 0 45 M15 60 C5 60, 0 55, 0 45 M0 45 C0 33.23, 0 21.47, 0 15 M0 45 C0 36.12, 0 27.23, 0 15 M0 15 C0 5, 5 0, 15 0 M0 15 C0 5, 5 0, 15 0" stroke="#495057" stroke-width="2" fill="none"></path></g><g transform="translate(15 56) rotate(0 345 24)"><text x="345" y="0" font-family="Segoe UI Emoji" font-size="16px" fill="#1e1e1e" text-anchor="middle" style="white-space: pre;" direction="ltr" dominant-baseline="text-before-edge">Spark SQL Engine</text><text x="345" y="20" font-family="Segoe UI Emoji" font-size="16px" fill="#1e1e1e" text-anchor="middle" style="white-space: pre;" direction="ltr" dominant-baseline="text-before-edge">(Federated Query Layer)</text></g><g stroke-linecap="round" transform="translate(20 120) rotate(0 165 190)"><path d="M32 0 C124.68 0, 217.37 0, 298 0 C319.33 0, 330 10.67, 330 32 C330 99.17, 330 166.33, 330 348 C330 369.33, 319.33 380, 298 380 C224.88 380, 151.76 380, 32 380 C10.67 380, 0 369.33, 0 348 C0 262.1, 0 176.21, 0 32 C0 10.67, 10.67 0, 32 0" stroke="none" stroke-width="0" fill="#dbe4ff"></path><path d="M32 0 C98.39 0, 164.78 0, 298 0 M32 0 C122.86 0, 213.71 0, 298 0 M298 0 C319.33 0, 330 10.67, 330 32 M298 0 C319.33 0, 330 10.67, 330 32 M330 32 C330 132.53, 330 233.07, 330 348 M330 32 C330 142.83, 330 253.65, 330 348 M330 348 C330 369.33, 319.33 380, 298 380 M330 348 C330 369.33, 319.33 380, 298 380 M298 380 C211.28 380, 124.56 380, 32 380 M298 380 C214.97 380, 131.94 380, 32 380 M32 380 C10.67 380, 0 369.33, 0 348 M32 380 C10.67 380, 0 369.33, 0 348 M0 348 C0 232.4, 0 116.81, 0 32 M0 348 C0 269.34, 0 190.68, 0 32 M0 32 C0 10.67, 10.67 0, 32 0 M0 32 C0 10.67, 10.67 0, 32 0" stroke="#1971c2" stroke-width="2" fill="none"></path></g><g transform="translate(30 130) rotate(0 155 11)"><text x="155" y="0" font-family="Segoe UI Emoji" font-size="16px" fill="#1971c2" text-anchor="middle" style="white-space: pre;" direction="ltr" dominant-baseline="text-before-edge">💾 Delta Lakehouse</text></g><g transform="translate(30 156) rotate(0 155 9)"><text x="155" y="0" font-family="Segoe UI Emoji" font-size="12px" fill="#495057" text-anchor="middle" style="white-space: pre;" direction="ltr" dominant-baseline="text-before-edge">(Unity Catalog)</text></g><g stroke-linecap="round" transform="translate(40 185) rotate(0 145 75)"><path d="M32 0 C119.78 0, 207.56 0, 258 0 C279.33 0, 290 10.67, 290 32 C290 54.64, 290 77.28, 290 118 C290 139.33, 279.33 150, 258 150 C179.86 150, 101.73 150, 32 150 C10.67 150, 0 139.33, 0 118 C0 87.19, 0 56.37, 0 32 C0 10.67, 10.67 0, 32 0" stroke="none" stroke-width="0" fill="#edf2ff"></path><path d="M32 0 C88.41 0, 144.81 0, 258 0 M32 0 C96.54 0, 161.07 0, 258 0 M258 0 C279.33 0, 290 10.67, 290 32 M258 0 C279.33 0, 290 10.67, 290 32 M290 32 C290 62.37, 290 92.74, 290 118 M290 32 C290 60.36, 290 88.72, 290 118 M290 118 C290 139.33, 279.33 150, 258 150 M290 118 C290 139.33, 279.33 150, 258 150 M258 150 C177.24 150, 96.47 150, 32 150 M258 150 C180.3 150, 102.61 150, 32 150 M32 150 C10.67 150, 0 139.33, 0 118 M32 150 C10.67 150, 0 139.33, 0 118 M0 118 C0 88.81, 0 59.62, 0 32 M0 118 C0 100.65, 0 83.3, 0 32 M0 32 C0 10.67, 10.67 0, 32 0 M0 32 C0 10.67, 10.67 0, 32 0" stroke="#1971c2" stroke-width="2" fill="none"></path></g><g transform="translate(50 197) rotate(0 135 63)"><text x="0" y="0" font-family="Segoe UI Emoji" font-size="14px" fill="#1e1e1e" text-anchor="start" style="white-space: pre;" direction="ltr" dominant-baseline="text-before-edge">sensor_readings (345,600 rows)</text><text x="0" y="17.5" font-family="Segoe UI Emoji" font-size="14px" fill="#1e1e1e" text-anchor="start" style="white-space: pre;" direction="ltr" dominant-baseline="text-before-edge">sensors (160)</text><text x="0" y="35" font-family="Segoe UI Emoji" font-size="14px" fill="#1e1e1e" text-anchor="start" style="white-space: pre;" direction="ltr" dominant-baseline="text-before-edge">systems (80)</text><text x="0" y="52.5" font-family="Segoe UI Emoji" font-size="14px" fill="#1e1e1e" text-anchor="start" style="white-space: pre;" direction="ltr" dominant-baseline="text-before-edge">aircraft (20)</text></g><g transform="translate(40 350) rotate(0 145 9)"><text x="0" y="0" font-family="Segoe UI Emoji" font-size="13px" fill="#1971c2" text-anchor="start" style="white-space: pre;" direction="ltr" dominant-baseline="text-before-edge">Best for:</text></g><g transform="translate(40 372) rotate(0 145 30)"><text x="0" y="0" font-family="Segoe UI Emoji" font-size="12px" fill="#1e1e1e" text-anchor="start" style="white-space: pre;" direction="ltr" dominant-baseline="text-before-edge">- Time-series analytics</text><text x="0" y="15" font-family="Segoe UI Emoji" font-size="12px" fill="#1e1e1e" text-anchor="start" style="white-space: pre;" direction="ltr" dominant-baseline="text-before-edge">- Statistical aggregates</text><text x="0" y="30" font-family="Segoe UI Emoji" font-size="12px" fill="#1e1e1e" text-anchor="start" style="white-space: pre;" direction="ltr" dominant-baseline="text-before-edge">- Sensor trend analysis</text></g><g stroke-linecap="round" transform="translate(370 120) rotate(0 165 190)"><path d="M32 0 C103.38 0, 174.76 0, 298 0 C319.33 0, 330 10.67, 330 32 C330 147.24, 330 262.48, 330 348 C330 369.33, 319.33 380, 298 380 C221.54 380, 145.09 380, 32 380 C10.67 380, 0 369.33, 0 348 C0 243.32, 0 138.64, 0 32 C0 10.67, 10.67 0, 32 0" stroke="none" stroke-width="0" fill="#f3d9fa"></path><path d="M32 0 C98.4 0, 164.79 0, 298 0 M32 0 C131.36 0, 230.72 0, 298 0 M298 0 C319.33 0, 330 10.67, 330 32 M298 0 C319.33 0, 330 10.67, 330 32 M330 32 C330 102.52, 330 173.03, 330 348 M330 32 C330 122.96, 330 213.92, 330 348 M330 348 C330 369.33, 319.33 380, 298 380 M330 348 C330 369.33, 319.33 380, 298 380 M298 380 C239.47 380, 180.94 380, 32 380 M298 380 C242.92 380, 187.84 380, 32 380 M32 380 C10.67 380, 0 369.33, 0 348 M32 380 C10.67 380, 0 369.33, 0 348 M0 348 C0 257.41, 0 166.82, 0 32 M0 348 C0 250.85, 0 153.71, 0 32 M0 32 C0 10.67, 10.67 0, 32 0 M0 32 C0 10.67, 10.67 0, 32 0" stroke="#9c36b5" stroke-width="2" fill="none"></path></g><g transform="translate(380 130) rotate(0 155 11)"><text x="155" y="0" font-family="Segoe UI Emoji" font-size="16px" fill="#9c36b5" text-anchor="middle" style="white-space: pre;" direction="ltr" dominant-baseline="text-before-edge">🔷 Neo4j Knowledge Graph</text></g><g transform="translate(380 156) rotate(0 155 9)"><text x="155" y="0" font-family="Segoe UI Emoji" font-size="12px" fill="#495057" text-anchor="middle" style="white-space: pre;" direction="ltr" dominant-baseline="text-before-edge">(UC JDBC / Spark Connector)</text></g><g stroke-linecap="round" transform="translate(390 185) rotate(0 145 75)"><path d="M32 0 C101.68 0, 171.36 0, 258 0 C279.33 0, 290 10.67, 290 32 C290 50.52, 290 69.05, 290 118 C290 139.33, 279.33 150, 258 150 C177.03 150, 96.06 150, 32 150 C10.67 150, 0 139.33, 0 118 C0 99.27, 0 80.55, 0 32 C0 10.67, 10.67 0, 32 0" stroke="none" stroke-width="0" fill="#f8f0fc"></path><path d="M32 0 C88.41 0, 144.83 0, 258 0 M32 0 C103.76 0, 175.52 0, 258 0 M258 0 C279.33 0, 290 10.67, 290 32 M258 0 C279.33 0, 290 10.67, 290 32 M290 32 C290 54.2, 290 76.4, 290 118 M290 32 C290 54.95, 290 77.91, 290 118 M290 118 C290 139.33, 279.33 150, 258 150 M290 118 C290 139.33, 279.33 150, 258 150 M258 150 C201.19 150, 144.37 150, 32 150 M258 150 C204.05 150, 150.1 150, 32 150 M32 150 C10.67 150, 0 139.33, 0 118 M32 150 C10.67 150, 0 139.33, 0 118 M0 118 C0 95.62, 0 73.23, 0 32 M0 118 C0 95.62, 0 73.24, 0 32 M0 32 C0 10.67, 10.67 0, 32 0 M0 32 C0 10.67, 10.67 0, 32 0" stroke="#9c36b5" stroke-width="2" fill="none"></path></g><g transform="translate(400 197) rotate(0 135 63)"><text x="0" y="0" font-family="Segoe UI Emoji" font-size="14px" fill="#1e1e1e" text-anchor="start" style="white-space: pre;" direction="ltr" dominant-baseline="text-before-edge">MaintenanceEvent nodes</text><text x="0" y="17.5" font-family="Segoe UI Emoji" font-size="14px" fill="#1e1e1e" text-anchor="start" style="white-space: pre;" direction="ltr" dominant-baseline="text-before-edge">Flight nodes</text><text x="0" y="35" font-family="Segoe UI Emoji" font-size="14px" fill="#1e1e1e" text-anchor="start" style="white-space: pre;" direction="ltr" dominant-baseline="text-before-edge">Component topology</text><text x="0" y="52.5" font-family="Segoe UI Emoji" font-size="14px" fill="#1e1e1e" text-anchor="start" style="white-space: pre;" direction="ltr" dominant-baseline="text-before-edge">Airport relationships</text><text x="0" y="70" font-family="Segoe UI Emoji" font-size="14px" fill="#1e1e1e" text-anchor="start" style="white-space: pre;" direction="ltr" dominant-baseline="text-before-edge">Delay events</text></g><g transform="translate(390 350) rotate(0 145 9)"><text x="0" y="0" font-family="Segoe UI Emoji" font-size="13px" fill="#9c36b5" text-anchor="start" style="white-space: pre;" direction="ltr" dominant-baseline="text-before-edge">Best for:</text></g><g transform="translate(390 372) rotate(0 145 30)"><text x="0" y="0" font-family="Segoe UI Emoji" font-size="12px" fill="#1e1e1e" text-anchor="start" style="white-space: pre;" direction="ltr" dominant-baseline="text-before-edge">- Relationship traversals</text><text x="0" y="15" font-family="Segoe UI Emoji" font-size="12px" fill="#1e1e1e" text-anchor="start" style="white-space: pre;" direction="ltr" dominant-baseline="text-before-edge">- Maintenance correlation</text><text x="0" y="30" font-family="Segoe UI Emoji" font-size="12px" fill="#1e1e1e" text-anchor="start" style="white-space: pre;" direction="ltr" dominant-baseline="text-before-edge">- Flight/route topology</text></g><g stroke-linecap="round"><g stroke-opacity="0.6" fill-opacity="0.6" transform="translate(360 120) rotate(0 0 190)"><path d="M0 0 C0 94.86, 0 189.72, 0 380" stroke="#495057" stroke-width="1.5" fill="none" stroke-dasharray="8 9"></path></g></g><mask></mask></svg>