<svg version="1.1" xmlns="http://www.w3.org/2000/svg" viewBox="0 0 770 480" width="770" height="480">
  <!-- svg-source:excalidraw -->
  
  <defs>
    <style class="style-fonts">
      @font-face {
        font-family: "Virgil";
        src: url("https://unpkg.com/@excalidraw/excalidraw@undefined/dist/excalidraw-assets/Virgil.woff2");
      }
      @font-face {
        font-family: "Cascadia";
        src: url("https://unpkg.com/@excalidraw/excalidraw@undefined/dist/excalidraw-assets/Cascadia.woff2");
      }
      @font-face {
        font-family: "Assistant";
        src: url("https://unpkg.com/@excalidraw/excalidraw@undefined/dist/excalidraw-assets/Assistant-Regular.woff2");
      }
    </style>
    
  </defs>
  <rect x="0" y="0" width="770" height="480" fill="#ffffff"></rect><g transform="translate(60 10) rotate(0 350 15)"><text x="350" y="0" font-family="Segoe UI Emoji" font-size="24px" fill="#1e1e1e" text-anchor="middle" style="white-space: pre;" direction="ltr" dominant-baseline="text-before-edge">Federated Lakehouse Architecture</text></g><g stroke-linecap="round" transform="translate(10 50) rotate(0 350 210)"><path d="M32 0 C190.73 0, 349.45 0, 668 0 M32 0 C239.07 0, 446.15 0, 668 0 M668 0 C689.33 0, 700 10.67, 700 32 M668 0 C689.33 0, 700 10.67, 700 32 M700 32 C700 126.57, 700 221.13, 700 388 M700 32 C700 168.04, 700 304.09, 700 388 M700 388 C700 409.33, 689.33 420, 668 420 M700 388 C700 409.33, 689.33 420, 668 420 M668 420 C490.56 420, 313.12 420, 32 420 M668 420 C499.66 420, 331.32 420, 32 420 M32 420 C10.67 420, 0 409.33, 0 388 M32 420 C10.67 420, 0 409.33, 0 388 M0 388 C0 279.28, 0 170.57, 0 32 M0 388 C0 309.8, 0 231.59, 0 32 M0 32 C0 10.67, 10.67 0, 32 0 M0 32 C0 10.67, 10.67 0, 32 0" stroke="#495057" stroke-width="3" fill="none"></path></g><g stroke-linecap="round" transform="translate(10 50) rotate(0 350 30)"><path d="M15 0 C221.67 0, 428.34 0, 685 0 C695 0, 700 5, 700 15 C700 25.86, 700 36.71, 700 45 C700 55, 695 60, 685 60 C548.29 60, 411.57 60, 15 60 C5 60, 0 55, 0 45 C0 33.44, 0 21.88, 0 15 C0 5, 5 0, 15 0" stroke="none" stroke-width="0" fill="#ffec99"></path><path d="M15 0 C182.21 0, 349.43 0, 685 0 M15 0 C281.38 0, 547.76 0, 685 0 M685 0 C695 0, 700 5, 700 15 M685 0 C695 0, 700 5, 700 15 M700 15 C700 23.49, 700 31.99, 700 45 M700 15 C700 26.15, 700 37.3, 700 45 M700 45 C700 55, 695 60, 685 60 M700 45 C700 55, 695 60, 685 60 M685 60 C487.57 60, 290.15 60, 15 60 M685 60 C497.06 60, 309.12 60, 15 60 M15 60 C5 60, 0 55, 0 45 M15 60 C5 60, 0 55, 0 45 M0 45 C0 33.23, 0 21.47, 0 15 M0 45 C0 36.12, 0 27.23, 0 15 M0 15 C0 5, 5 0, 15 0 M0 15 C0 5, 5 0, 15 0" stroke="#495057" stroke-width="2" fill="none"></path></g><g transform="translate(15 56) rotate(0 345 24)"><text x="345" y="0" font-family="Segoe UI Emoji" font-size="16px" fill="#1e1e1e" text-anchor="middle" style="white-space: pre;" direction="ltr" dominant-baseline="text-before-edge">Spark SQL Engine</text><text x="345" y="20" font-family="Segoe UI Emoji" font-size="16px" fill="#1e1e1e" text-anchor="middle" style="white-space: pre;" direction="ltr" dominant-baseline="text-before-edge">(Federated Query Layer)</text></g><g stroke-linecap="round" transform="translate(20 120) rotate(0 167.5 170)"><path d="M32 0 C126.43 0, 220.85 0, 303 0 C324.33 0, 335 10.67, 335 32 C335 90.66, 335 149.33, 335 308 C335 329.33, 324.33 340, 303 340 C228.5 340, 154.01 340, 32 340 C10.67 340, 0 329.33, 0 308 C0 232.98, 0 157.95, 0 32 C0 10.67, 10.67 0, 32 0" stroke="none" stroke-width="0" fill="#dbe4ff"></path><path d="M32 0 C99.64 0, 167.27 0, 303 0 M32 0 C124.57 0, 217.13 0, 303 0 M303 0 C324.33 0, 335 10.67, 335 32 M303 0 C324.33 0, 335 10.67, 335 32 M335 32 C335 119.81, 335 207.61, 335 308 M335 32 C335 128.8, 335 225.59, 335 308 M335 308 C335 329.33, 324.33 340, 303 340 M335 308 C335 329.33, 324.33 340, 303 340 M303 340 C214.65 340, 126.3 340, 32 340 M303 340 C218.41 340, 133.82 340, 32 340 M32 340 C10.67 340, 0 329.33, 0 308 M32 340 C10.67 340, 0 329.33, 0 308 M0 308 C0 207.04, 0 106.07, 0 32 M0 308 C0 239.3, 0 170.59, 0 32 M0 32 C0 10.67, 10.67 0, 32 0 M0 32 C0 10.67, 10.67 0, 32 0" stroke="#1971c2" stroke-width="2" fill="none"></path></g><g transform="translate(30 128) rotate(0 157.5 10)"><text x="157.5" y="0" font-family="Segoe UI Emoji" font-size="16px" fill="#1971c2" text-anchor="middle" style="white-space: pre;" direction="ltr" dominant-baseline="text-before-edge">Delta Lakehouse</text></g><g transform="translate(30 148) rotate(0 157.5 9)"><text x="157.5" y="0" font-family="Segoe UI Emoji" font-size="13px" fill="#495057" text-anchor="middle" style="white-space: pre;" direction="ltr" dominant-baseline="text-before-edge">(Unity Catalog)</text></g><g stroke-linecap="round" transform="translate(40 175) rotate(0 147.5 70)"><path d="M32 0 C121.72 0, 211.44 0, 263 0 C284.33 0, 295 10.67, 295 32 C295 52.01, 295 72.02, 295 108 C295 129.33, 284.33 140, 263 140 C183.13 140, 103.27 140, 32 140 C10.67 140, 0 129.33, 0 108 C0 80.77, 0 53.54, 0 32 C0 10.67, 10.67 0, 32 0" stroke="none" stroke-width="0" fill="#edf2ff"></path><path d="M32 0 C89.66 0, 147.31 0, 263 0 M32 0 C97.96 0, 163.93 0, 263 0 M263 0 C284.33 0, 295 10.67, 295 32 M263 0 C284.33 0, 295 10.67, 295 32 M295 32 C295 58.84, 295 85.68, 295 108 M295 32 C295 57.06, 295 82.12, 295 108 M295 108 C295 129.33, 284.33 140, 263 140 M295 108 C295 129.33, 284.33 140, 263 140 M263 140 C180.45 140, 97.9 140, 32 140 M263 140 C183.58 140, 104.17 140, 32 140 M32 140 C10.67 140, 0 129.33, 0 108 M32 140 C10.67 140, 0 129.33, 0 108 M0 108 C0 82.2, 0 56.41, 0 32 M0 108 C0 92.67, 0 77.33, 0 32 M0 32 C0 10.67, 10.67 0, 32 0 M0 32 C0 10.67, 10.67 0, 32 0" stroke="#1971c2" stroke-width="2" fill="none"></path></g><g transform="translate(50 183) rotate(0 137.5 62)"><text x="0" y="0" font-family="Segoe UI Emoji" font-size="14px" fill="#1e1e1e" text-anchor="start" style="white-space: pre;" direction="ltr" dominant-baseline="text-before-edge">sensor_readings</text><text x="0" y="17.5" font-family="Segoe UI Emoji" font-size="14px" fill="#1e1e1e" text-anchor="start" style="white-space: pre;" direction="ltr" dominant-baseline="text-before-edge">(345,600 rows)</text><text x="0" y="35" font-family="Segoe UI Emoji" font-size="14px" fill="#1e1e1e" text-anchor="start" style="white-space: pre;" direction="ltr" dominant-baseline="text-before-edge">sensors (160)</text><text x="0" y="52.5" font-family="Segoe UI Emoji" font-size="14px" fill="#1e1e1e" text-anchor="start" style="white-space: pre;" direction="ltr" dominant-baseline="text-before-edge">systems (80)</text><text x="0" y="70" font-family="Segoe UI Emoji" font-size="14px" fill="#1e1e1e" text-anchor="start" style="white-space: pre;" direction="ltr" dominant-baseline="text-before-edge">aircraft (20)</text></g><g transform="translate(40 325) rotate(0 147.5 8)"><text x="0" y="0" font-family="Segoe UI Emoji" font-size="13px" fill="#1971c2" text-anchor="start" style="white-space: pre;" direction="ltr" dominant-baseline="text-before-edge">Best for:</text></g><g transform="translate(40 345) rotate(0 147.5 30)"><text x="0" y="0" font-family="Segoe UI Emoji" font-size="12px" fill="#1e1e1e" text-anchor="start" style="white-space: pre;" direction="ltr" dominant-baseline="text-before-edge">- Time-series analytics</text><text x="0" y="15" font-family="Segoe UI Emoji" font-size="12px" fill="#1e1e1e" text-anchor="start" style="white-space: pre;" direction="ltr" dominant-baseline="text-before-edge">- Statistical aggregates</text><text x="0" y="30" font-family="Segoe UI Emoji" font-size="12px" fill="#1e1e1e" text-anchor="start" style="white-space: pre;" direction="ltr" dominant-baseline="text-before-edge">- Sensor trend analysis</text></g><g stroke-linecap="round" transform="translate(365 120) rotate(0 167.5 170)"><path d="M32 0 C104.72 0, 177.44 0, 303 0 C324.33 0, 335 10.67, 335 32 C335 132.65, 335 233.31, 335 308 C335 329.33, 324.33 340, 303 340 C225.11 340, 147.22 340, 32 340 C10.67 340, 0 329.33, 0 308 C0 216.57, 0 125.14, 0 32 C0 10.67, 10.67 0, 32 0" stroke="none" stroke-width="0" fill="#f3d9fa"></path><path d="M32 0 C99.64 0, 167.29 0, 303 0 M32 0 C133.23 0, 234.45 0, 303 0 M303 0 C324.33 0, 335 10.67, 335 32 M303 0 C324.33 0, 335 10.67, 335 32 M335 32 C335 93.59, 335 155.18, 335 308 M335 32 C335 111.45, 335 190.89, 335 308 M335 308 C335 329.33, 324.33 340, 303 340 M335 308 C335 329.33, 324.33 340, 303 340 M303 340 C243.37 340, 183.73 340, 32 340 M303 340 C246.88 340, 190.77 340, 32 340 M32 340 C10.67 340, 0 329.33, 0 308 M32 340 C10.67 340, 0 329.33, 0 308 M0 308 C0 228.88, 0 149.76, 0 32 M0 308 C0 223.15, 0 138.3, 0 32 M0 32 C0 10.67, 10.67 0, 32 0 M0 32 C0 10.67, 10.67 0, 32 0" stroke="#9c36b5" stroke-width="2" fill="none"></path></g><g transform="translate(375 128) rotate(0 157.5 10)"><text x="157.5" y="0" font-family="Segoe UI Emoji" font-size="16px" fill="#9c36b5" text-anchor="middle" style="white-space: pre;" direction="ltr" dominant-baseline="text-before-edge">Neo4j Knowledge Graph</text></g><g transform="translate(375 148) rotate(0 157.5 9)"><text x="157.5" y="0" font-family="Segoe UI Emoji" font-size="13px" fill="#495057" text-anchor="middle" style="white-space: pre;" direction="ltr" dominant-baseline="text-before-edge">(UC JDBC / Spark Connector)</text></g><g stroke-linecap="round" transform="translate(385 175) rotate(0 147.5 70)"><path d="M32 0 C103.22 0, 174.44 0, 263 0 C284.33 0, 295 10.67, 295 32 C295 48.37, 295 64.74, 295 108 C295 129.33, 284.33 140, 263 140 C180.24 140, 97.48 140, 32 140 C10.67 140, 0 129.33, 0 108 C0 91.45, 0 74.9, 0 32 C0 10.67, 10.67 0, 32 0" stroke="none" stroke-width="0" fill="#f8f0fc"></path><path d="M32 0 C89.66 0, 147.32 0, 263 0 M32 0 C105.35 0, 178.69 0, 263 0 M263 0 C284.33 0, 295 10.67, 295 32 M263 0 C284.33 0, 295 10.67, 295 32 M295 32 C295 51.62, 295 71.24, 295 108 M295 32 C295 52.28, 295 72.57, 295 108 M295 108 C295 129.33, 284.33 140, 263 140 M295 108 C295 129.33, 284.33 140, 263 140 M263 140 C204.93 140, 146.86 140, 32 140 M263 140 C207.86 140, 152.72 140, 32 140 M32 140 C10.67 140, 0 129.33, 0 108 M32 140 C10.67 140, 0 129.33, 0 108 M0 108 C0 88.22, 0 68.44, 0 32 M0 108 C0 88.22, 0 68.44, 0 32 M0 32 C0 10.67, 10.67 0, 32 0 M0 32 C0 10.67, 10.67 0, 32 0" stroke="#9c36b5" stroke-width="2" fill="none"></path></g><g transform="translate(395 183) rotate(0 137.5 62)"><text x="0" y="0" font-family="Segoe UI Emoji" font-size="14px" fill="#1e1e1e" text-anchor="start" style="white-space: pre;" direction="ltr" dominant-baseline="text-before-edge">MaintenanceEvent nodes</text><text x="0" y="17.5" font-family="Segoe UI Emoji" font-size="14px" fill="#1e1e1e" text-anchor="start" style="white-space: pre;" direction="ltr" dominant-baseline="text-before-edge">Flight nodes</text><text x="0" y="35" font-family="Segoe UI Emoji" font-size="14px" fill="#1e1e1e" text-anchor="start" style="white-space: pre;" direction="ltr" dominant-baseline="text-before-edge">Component topology</text><text x="0" y="52.5" font-family="Segoe UI Emoji" font-size="14px" fill="#1e1e1e" text-anchor="start" style="white-space: pre;" direction="ltr" dominant-baseline="text-before-edge">Airport relationships</text><text x="0" y="70" font-family="Segoe UI Emoji" font-size="14px" fill="#1e1e1e" text-anchor="start" style="white-space: pre;" direction="ltr" dominant-baseline="text-before-edge">Delay events</text></g><g transform="translate(385 325) rotate(0 147.5 8)"><text x="0" y="0" font-family="Segoe UI Emoji" font-size="13px" fill="#9c36b5" text-anchor="start" style="white-space: pre;" direction="ltr" dominant-baseline="text-before-edge">Best for:</text></g><g transform="translate(385 345) rotate(0 147.5 30)"><text x="0" y="0" font-family="Segoe UI Emoji" font-size="12px" fill="#1e1e1e" text-anchor="start" style="white-space: pre;" direction="ltr" dominant-baseline="text-before-edge">- Relationship traversals</text><text x="0" y="15" font-family="Segoe UI Emoji" font-size="12px" fill="#1e1e1e" text-anchor="start" style="white-space: pre;" direction="ltr" dominant-baseline="text-before-edge">- Maintenance correlation</text><text x="0" y="30" font-family="Segoe UI Emoji" font-size="12px" fill="#1e1e1e" text-anchor="start" style="white-space: pre;" direction="ltr" dominant-baseline="text-before-edge">- Flight/route topology</text></g><g stroke-linecap="round"><g stroke-opacity="0.6" fill-opacity="0.6" transform="translate(360 120) rotate(0 0 170)"><path d="M0 0 C0 84.88, 0 169.75, 0 340" stroke="#495057" stroke-width="1.5" fill="none" stroke-dasharray="8 9"></path></g></g><mask></mask></svg>